<svg width="53" height="52" viewBox="0 0 53 52" fill="none" xmlns="http://www.w3.org/2000/svg">
<path fill-rule="evenodd" clip-rule="evenodd" d="M15.3016 4.33333C15.3016 3.57514 16.0742 2.88889 17.1072 2.88889H36.6072C37.6402 2.88889 38.4127 3.57514 38.4127 4.33333V8.66521H11.209C8.70841 8.66521 6.63496 10.5792 6.63496 12.9985V17.3333H5.37107C2.89706 17.3333 0.857178 19.2519 0.857178 21.6667V47.6667C0.857178 50.0814 2.89706 52 5.37107 52H48.3433C50.8173 52 52.8572 50.0814 52.8572 47.6667V21.6667C52.8572 19.2519 50.8173 17.3333 48.3433 17.3333H47.0794V12.9985C47.0794 10.5792 45.006 8.66521 42.5053 8.66521H41.3016V4.33333C41.3016 1.89841 39.1644 0 36.6072 0H17.1072C14.5499 0 12.4127 1.89841 12.4127 4.33333C12.4127 5.13108 13.0594 5.77778 13.8572 5.77778C14.6549 5.77778 15.3016 5.13108 15.3016 4.33333ZM11.209 11.5541H38.4127V12.9596C38.4127 13.7573 39.0594 14.404 39.8572 14.404C40.6549 14.404 41.3016 13.7573 41.3016 12.9596V11.5541H42.5053C43.4598 11.5541 44.1905 12.2286 44.1905 12.9985V17.3333H9.52384V12.9985C9.52384 12.2286 10.2545 11.5541 11.209 11.5541ZM9.52384 20.2222V23.1674C9.52384 23.9652 8.87714 24.6119 8.0794 24.6119C7.28166 24.6119 6.63496 23.9652 6.63496 23.1674V20.2222H5.37107C4.45429 20.2222 3.74607 20.8883 3.74607 21.6667V47.6667C3.74607 48.445 4.45429 49.1111 5.37107 49.1111H48.3433C49.2601 49.1111 49.9683 48.445 49.9683 47.6667V21.6667C49.9683 20.8883 49.2601 20.2222 48.3433 20.2222H9.52384ZM35.5238 34.6675V31.7469C35.5238 30.9491 36.1705 30.3024 36.9683 30.3024C37.766 30.3024 38.4127 30.9491 38.4127 31.7469V34.6675C38.4127 36.3163 36.9659 37.5564 35.2831 37.5564H18.4313C16.7485 37.5564 15.3016 36.3163 15.3016 34.6675V31.7469C15.3016 30.9491 15.9483 30.3024 16.7461 30.3024C17.5438 30.3024 18.1905 30.9491 18.1905 31.7469V34.6675C18.1905 34.6372 18.2104 34.6409 18.2592 34.65C18.2974 34.6571 18.3533 34.6675 18.4313 34.6675H35.2831C35.3611 34.6675 35.417 34.6571 35.4552 34.65C35.504 34.6409 35.5238 34.6372 35.5238 34.6675Z" fill="black"/>
</svg>
