<svg width="23" height="23" viewBox="0 0 23 23" fill="none" xmlns="http://www.w3.org/2000/svg">
<path d="M10.471 14.2365C11.4732 13.67 12.2595 12.7876 12.7073 11.7271C13.155 10.6666 13.239 9.48766 12.9461 8.37438C12.6532 7.26111 12 6.27615 11.0883 5.5733C10.1766 4.87044 9.05783 4.48926 7.90667 4.48926C6.75551 4.48926 5.63675 4.87044 4.72507 5.5733C3.81339 6.27615 3.16011 7.26111 2.86722 8.37438C2.57433 9.48766 2.65833 10.6666 3.10609 11.7271C3.55386 12.7876 4.34019 13.67 5.34231 14.2365C3.58519 14.7973 2.05932 15.9167 0.996745 17.4243C0.955987 17.4822 0.927029 17.5475 0.911525 17.6166C0.896021 17.6857 0.894273 17.7571 0.906383 17.8269C0.918492 17.8966 0.944221 17.9633 0.982101 18.0231C1.01998 18.0829 1.06927 18.1347 1.12715 18.1755C1.18504 18.2162 1.25038 18.2452 1.31945 18.2607C1.38853 18.2762 1.45998 18.2779 1.52973 18.2658C1.59948 18.2537 1.66616 18.228 1.72597 18.1901C1.78577 18.1522 1.83753 18.1029 1.87829 18.045C2.5582 17.0778 3.46085 16.2884 4.51003 15.7435C5.55921 15.1985 6.72411 14.914 7.90638 14.914C9.08864 14.9139 10.2536 15.1983 11.3028 15.7432C12.352 16.2881 13.2547 17.0774 13.9347 18.0446C13.9755 18.1025 14.0272 18.1518 14.087 18.1896C14.1468 18.2275 14.2135 18.2532 14.2833 18.2653C14.353 18.2774 14.4245 18.2757 14.4935 18.2602C14.5626 18.2446 14.628 18.2157 14.6858 18.1749C14.7437 18.1342 14.793 18.0824 14.8309 18.0226C14.8687 17.9628 14.8945 17.8961 14.9066 17.8263C14.9187 17.7566 14.9169 17.6851 14.9014 17.6161C14.8859 17.547 14.8569 17.4817 14.8162 17.4238C13.7536 15.9164 12.2279 14.7973 10.471 14.2365ZM3.77381 9.70297C3.77381 8.88557 4.0162 8.08654 4.47032 7.4069C4.92444 6.72726 5.5699 6.19755 6.32507 5.88475C7.08024 5.57194 7.91121 5.4901 8.7129 5.64957C9.51459 5.80903 10.251 6.20264 10.829 6.78063C11.407 7.35861 11.8006 8.09501 11.96 8.8967C12.1195 9.69838 12.0377 10.5294 11.7248 11.2845C11.412 12.0397 10.8823 12.6852 10.2027 13.1393C9.52306 13.5934 8.72402 13.8358 7.90663 13.8358C6.81092 13.8345 5.76044 13.3987 4.98565 12.6239C4.21087 11.8492 3.77505 10.7987 3.77381 9.70297ZM22.01 18.175C21.9522 18.2157 21.8868 18.2447 21.8177 18.2602C21.7487 18.2757 21.6772 18.2775 21.6075 18.2654C21.5377 18.2533 21.4711 18.2275 21.4112 18.1897C21.3514 18.1518 21.2997 18.1025 21.2589 18.0446C20.5782 17.0783 19.6753 16.2896 18.6263 15.7448C17.5774 15.2 16.4129 14.915 15.2309 14.9139C15.0879 14.9139 14.9508 14.8571 14.8497 14.756C14.7486 14.6549 14.6918 14.5178 14.6918 14.3748C14.6918 14.2319 14.7486 14.0948 14.8497 13.9937C14.9508 13.8926 15.0879 13.8358 15.2309 13.8358C15.8211 13.8352 16.4043 13.7082 16.9413 13.4633C17.4783 13.2184 17.9566 12.8614 18.344 12.4162C18.7315 11.971 19.0191 11.448 19.1875 10.8823C19.356 10.3167 19.4013 9.72154 19.3204 9.13691C19.2396 8.55228 19.0345 7.99175 18.7189 7.49303C18.4033 6.99431 17.9846 6.56896 17.4908 6.24562C16.9971 5.92227 16.4398 5.70842 15.8566 5.61845C15.2733 5.52849 14.6775 5.5645 14.1093 5.72406C13.9716 5.76278 13.8243 5.74524 13.6996 5.6753C13.5749 5.60536 13.483 5.48875 13.4443 5.35112C13.4056 5.21348 13.4231 5.06611 13.4931 4.94141C13.563 4.81671 13.6796 4.7249 13.8173 4.68618C15.0435 4.34018 16.354 4.4555 17.501 5.01033C18.6479 5.56515 19.5518 6.52103 20.0417 7.69719C20.5316 8.87334 20.5736 10.1882 20.1596 11.3932C19.7457 12.5982 18.9045 13.6098 17.7953 14.2366C19.5521 14.7974 21.0778 15.9165 22.1404 17.4239C22.2227 17.5408 22.2552 17.6856 22.2308 17.8264C22.2063 17.9673 22.1269 18.0926 22.01 18.175Z" fill="black"/>
</svg>
