<svg width="34" height="33" viewBox="0 0 34 33" fill="none" xmlns="http://www.w3.org/2000/svg">
<g clip-path="url(#clip0)">
<path d="M22.8225 13.7435C22.8225 13.4783 22.9312 13.224 23.1246 13.0364C23.318 12.8489 23.5803 12.7435 23.8538 12.7435H25.9163C26.1898 12.7435 26.4521 12.8489 26.6455 13.0364C26.8389 13.224 26.9475 13.4783 26.9475 13.7435V15.7435C26.9475 16.0087 26.8389 16.2631 26.6455 16.4506C26.4521 16.6382 26.1898 16.7435 25.9163 16.7435H23.8538C23.5803 16.7435 23.318 16.6382 23.1246 16.4506C22.9312 16.2631 22.8225 16.0087 22.8225 15.7435V13.7435Z" fill="black"/>
<path d="M7.35376 0.74353C7.62726 0.74353 7.88957 0.848887 8.08296 1.03642C8.27636 1.22396 8.38501 1.47831 8.38501 1.74353V2.74353H24.885V1.74353C24.885 1.47831 24.9937 1.22396 25.1871 1.03642C25.3805 0.848887 25.6428 0.74353 25.9163 0.74353C26.1898 0.74353 26.4521 0.848887 26.6455 1.03642C26.8389 1.22396 26.9475 1.47831 26.9475 1.74353V2.74353H29.01C30.104 2.74353 31.1532 3.16496 31.9268 3.9151C32.7004 4.66525 33.135 5.68266 33.135 6.74353V28.7435C33.135 29.8044 32.7004 30.8218 31.9268 31.572C31.1532 32.3221 30.104 32.7435 29.01 32.7435H4.26001C3.16599 32.7435 2.11678 32.3221 1.34319 31.572C0.569607 30.8218 0.13501 29.8044 0.13501 28.7435V6.74353C0.13501 5.68266 0.569607 4.66525 1.34319 3.9151C2.11678 3.16496 3.16599 2.74353 4.26001 2.74353H6.32251V1.74353C6.32251 1.47831 6.43116 1.22396 6.62456 1.03642C6.81795 0.848887 7.08026 0.74353 7.35376 0.74353V0.74353ZM2.19751 8.74353V28.7435C2.19751 29.274 2.41481 29.7827 2.8016 30.1577C3.1884 30.5328 3.713 30.7435 4.26001 30.7435H29.01C29.557 30.7435 30.0816 30.5328 30.4684 30.1577C30.8552 29.7827 31.0725 29.274 31.0725 28.7435V8.74353H2.19751Z" fill="black"/>
</g>
<defs>
<clipPath id="clip0">
<rect width="33" height="32" fill="white" transform="translate(0.13501 0.74353)"/>
</clipPath>
</defs>
</svg>
