<svg width="54" height="54" viewBox="0 0 54 54" fill="none" xmlns="http://www.w3.org/2000/svg">
<path d="M31.5 4.5C36 4.5 38.25 6.7725 38.25 11.3175V27.18C38.25 31.6575 35.0775 33.39 31.185 31.05L28.215 29.25C27.54 28.845 26.46 28.845 25.785 29.25L22.815 31.05C18.9225 33.39 15.75 31.6575 15.75 27.18V11.3175C15.75 6.7725 18 4.5 22.5 4.5H31.5Z" stroke="#292D32" stroke-width="1.5" stroke-linecap="round" stroke-linejoin="round"/>
<path d="M15.345 11.2274C7.6725 12.5099 4.5 17.2349 4.5 26.7749V33.5924C4.5 44.9549 9 49.4999 20.25 49.4999H33.75C45 49.4999 49.5 44.9549 49.5 33.5924V26.7749C49.5 17.0774 46.215 12.3299 38.25 11.1599" stroke="#292D32" stroke-width="1.5" stroke-linecap="round" stroke-linejoin="round"/>
</svg>
