<svg width="46" height="46" viewBox="0 0 46 46" fill="none" xmlns="http://www.w3.org/2000/svg">
<path d="M38.3611 7.74353H12.1111C10.043 7.74353 8.36108 9.42541 8.36108 11.4935V20.8685H12.1111V15.2435L24.1111 24.2435C24.4358 24.4867 24.8305 24.6181 25.2361 24.6181C25.6417 24.6181 26.0364 24.4867 26.3611 24.2435L38.3611 15.2435V32.1185H23.3611V35.8685H38.3611C40.4292 35.8685 42.1111 34.1867 42.1111 32.1185V11.4935C42.1111 9.42541 40.4292 7.74353 38.3611 7.74353ZM25.2361 20.3998L13.3598 11.4935H37.1123L25.2361 20.3998Z" fill="black"/>
<path d="M4.61108 22.7435H17.7361V26.4935H4.61108V22.7435ZM8.36108 28.3685H19.6111V32.1185H8.36108V28.3685ZM13.9861 33.9935H21.4861V37.7435H13.9861V33.9935Z" fill="black"/>
</svg>
