<svg width="57" height="56" viewBox="0 0 57 56" fill="none" xmlns="http://www.w3.org/2000/svg">
<path d="M4.75 39.8066H28.5" stroke="#292D32" stroke-width="1.5" stroke-miterlimit="10" stroke-linecap="round" stroke-linejoin="round"/>
<path d="M10.0224 31.5H23.2276C27.4551 31.5 28.5 32.5267 28.5 36.6333V46.2233C28.5 50.33 27.4551 51.3567 23.2276 51.3567H10.0224C5.79493 51.3567 4.75 50.33 4.75 46.2233V36.6333C4.75 32.5267 5.79493 31.5 10.0224 31.5Z" stroke="#292D32" stroke-width="1.5" stroke-linecap="round" stroke-linejoin="round"/>
<path d="M52.25 35C52.25 44.03 44.8162 51.3333 35.625 51.3333L38.1187 47.25" stroke="#292D32" stroke-width="1.5" stroke-linecap="round" stroke-linejoin="round"/>
<path d="M4.75 21.0001C4.75 11.9701 12.1838 4.66675 21.375 4.66675L18.8813 8.75008" stroke="#292D32" stroke-width="1.5" stroke-linecap="round" stroke-linejoin="round"/>
<path d="M43.9375 25.6667C49.84 25.6667 54.625 20.9657 54.625 15.1667C54.625 9.36776 49.84 4.66675 43.9375 4.66675C38.035 4.66675 33.25 9.36776 33.25 15.1667C33.25 20.9657 38.035 25.6667 43.9375 25.6667Z" stroke="#292D32" stroke-width="1.5" stroke-linecap="round" stroke-linejoin="round"/>
</svg>
