<svg width="57" height="56" viewBox="0 0 57 56" fill="none" xmlns="http://www.w3.org/2000/svg">
<path d="M4.74072 19.8333H27.3032" stroke="#292D32" stroke-width="1.5" stroke-miterlimit="10" stroke-linecap="round" stroke-linejoin="round"/>
<path d="M14.2407 38.5H18.9907" stroke="#292D32" stroke-width="1.5" stroke-miterlimit="10" stroke-linecap="round" stroke-linejoin="round"/>
<path d="M24.9282 38.5H34.4282" stroke="#292D32" stroke-width="1.5" stroke-miterlimit="10" stroke-linecap="round" stroke-linejoin="round"/>
<path d="M52.2407 28.0701V37.5901C52.2407 45.7801 50.127 47.8334 41.6957 47.8334H15.2857C6.85447 47.8334 4.74072 45.7801 4.74072 37.5901V18.4101C4.74072 10.2201 6.85447 8.16675 15.2857 8.16675H34.4282" stroke="#292D32" stroke-width="1.5" stroke-linecap="round" stroke-linejoin="round"/>
<path d="M45.3064 9.63681L36.4951 18.2935C36.1626 18.6201 35.8301 19.2735 35.7589 19.7401L35.2839 23.0535C35.1176 24.2435 35.9726 25.0835 37.1839 24.9201L40.5564 24.4535C41.0314 24.3835 41.6964 24.0568 42.0289 23.7301L50.8401 15.0735C52.3601 13.5801 53.0726 11.8535 50.8401 9.66014C48.5839 7.44348 46.8264 8.14348 45.3064 9.63681Z" stroke="#292D32" stroke-width="1.5" stroke-miterlimit="10" stroke-linecap="round" stroke-linejoin="round"/>
<path d="M44.0469 10.8733C44.8069 13.51 46.8969 15.5633 49.5569 16.2866" stroke="#292D32" stroke-width="1.5" stroke-miterlimit="10" stroke-linecap="round" stroke-linejoin="round"/>
</svg>
