<svg width="56" height="57" viewBox="0 0 56 57" fill="none" xmlns="http://www.w3.org/2000/svg">
<path d="M4.6665 23.75H51.3332" stroke="#292D32" stroke-width="1.5" stroke-miterlimit="10" stroke-linecap="round" stroke-linejoin="round"/>
<path d="M26.9458 48.687H15.0225C6.73919 48.687 4.63916 46.597 4.63916 38.2607V18.7382C4.63916 11.1857 6.3659 8.7632 12.8759 8.3832C13.5292 8.35945 14.2525 8.33569 15.0225 8.33569H40.9458C49.2292 8.33569 51.3292 10.4257 51.3292 18.7619V29.2357" stroke="#292D32" stroke-width="1.5" stroke-linecap="round" stroke-linejoin="round"/>
<path d="M14 38H23.3333" stroke="#292D32" stroke-width="1.5" stroke-miterlimit="10" stroke-linecap="round" stroke-linejoin="round"/>
<path d="M51.3332 42.75C51.3332 44.5312 50.8431 46.2175 49.9798 47.6425C48.3698 50.3975 45.4065 52.25 41.9998 52.25C38.5932 52.25 35.6299 50.3975 34.0199 47.6425C33.1565 46.2175 32.6665 44.5312 32.6665 42.75C32.6665 37.5012 36.8432 33.25 41.9998 33.25C47.1565 33.25 51.3332 37.5012 51.3332 42.75Z" stroke="#292D32" stroke-width="1.5" stroke-miterlimit="10" stroke-linecap="round" stroke-linejoin="round"/>
<path d="M38.3633 42.7489L40.6733 45.1001L45.6433 40.4214" stroke="#292D32" stroke-width="1.5" stroke-linecap="round" stroke-linejoin="round"/>
</svg>
