<svg width="58" height="52" viewBox="0 0 58 52" fill="none" xmlns="http://www.w3.org/2000/svg">
<path fill-rule="evenodd" clip-rule="evenodd" d="M48.7837 46.9811V21.601C48.7837 20.8177 49.4187 20.1827 50.202 20.1827C50.9854 20.1827 51.6204 20.8177 51.6204 21.601V46.9811C51.6204 50.5154 47.5623 52.5088 44.6429 50.2443L39.1802 44.9286L34.3428 40.3322C34.0747 40.0784 33.7226 39.9375 33.3611 39.9375L7.10102 39.9488L4.73971 39.9204C2.39091 39.895 0.5 37.9831 0.5 35.6342V4.46161C0.5 2.11165 2.40379 0.206543 4.75507 0.206543H52.9792C55.3284 0.206543 57.2342 2.11241 57.2342 4.46161V38.5021C57.2342 39.2855 56.5992 39.9205 55.8159 39.9205C55.0325 39.9205 54.3975 39.2855 54.3975 38.5021V4.46161C54.3975 3.67908 53.7617 3.04325 52.9792 3.04325H4.75507C3.9709 3.04325 3.33671 3.67788 3.33671 4.46161V35.6342C3.33671 36.4286 3.97633 37.0753 4.77209 37.0839L7.11743 37.1122L33.3605 37.1008C34.4497 37.1008 35.4992 37.5208 36.2948 38.2739L41.1464 42.8839L46.4986 48.1049C47.4307 48.8242 48.7837 48.1596 48.7837 46.9811ZM38.3061 19.5718C31.1342 26.7438 19.5049 26.7438 12.3329 19.5718C11.779 19.0179 11.779 18.1199 12.3329 17.566C12.8868 17.0121 13.7849 17.0121 14.3388 17.566C20.4029 23.6301 30.2361 23.6301 36.3003 17.566C36.8542 17.0121 37.7522 17.0121 38.3061 17.566C38.86 18.1199 38.86 19.0179 38.3061 19.5718Z" fill="black"/>
</svg>
