<svg width="20" height="18" viewBox="0 0 20 18" fill="none" xmlns="http://www.w3.org/2000/svg">
<path fill-rule="evenodd" clip-rule="evenodd" d="M17.021 16.489V7.542C17.021 7.26586 17.2449 7.042 17.521 7.042C17.7971 7.042 18.021 7.26586 18.021 7.542V16.489C18.021 17.7349 16.5904 18.4377 15.5613 17.6393L13.6356 15.7655L11.9303 14.1451C11.8358 14.0557 11.7116 14.006 11.5842 14.006L2.327 14.01L1.49459 14C0.666584 13.991 0 13.317 0 12.489V1.5C0 0.671589 0.671126 0 1.5 0H18.5C19.3281 0 20 0.671858 20 1.5V13.5C20 13.7761 19.7761 14 19.5 14C19.2239 14 19 13.7761 19 13.5V1.5C19 1.22414 18.7759 1 18.5 1H1.5C1.22357 1 1 1.22372 1 1.5V12.489C1 12.769 1.22548 12.997 1.506 13L2.33278 13.01L11.584 13.006C11.968 13.006 12.3379 13.1541 12.6184 13.4195L14.3287 15.0447L16.2155 16.8852C16.5441 17.1387 17.021 16.9044 17.021 16.489ZM13.3275 6.82665C10.7992 9.35492 6.69961 9.35492 4.17135 6.82665C3.97608 6.63139 3.97608 6.31481 4.17135 6.11955C4.36661 5.92428 4.68319 5.92428 4.87845 6.11955C7.01619 8.25728 10.4826 8.25728 12.6203 6.11955C12.8156 5.92428 13.1322 5.92428 13.3275 6.11955C13.5227 6.31481 13.5227 6.63139 13.3275 6.82665Z" fill="black"/>
</svg>
