<svg width="53" height="53" viewBox="0 0 53 53" fill="none" xmlns="http://www.w3.org/2000/svg">
<path d="M45.6436 40.6075C48.7432 37.845 50.4983 34.1629 50.4983 30.3418C50.4983 26.2809 48.5973 22.4831 45.1453 19.6473C41.7856 16.8882 37.3386 15.3685 32.6228 15.3685C27.9071 15.3685 23.46 16.8882 20.1009 19.6475C16.6488 22.4831 14.7478 26.2809 14.7478 30.3418C14.7478 34.4027 16.6488 38.2005 20.1009 41.0363C23.46 43.7956 27.9071 45.3151 32.6228 45.3151C33.2512 45.3151 33.8834 45.2874 34.5103 45.2323L35.5814 46.1607C39.2714 49.3581 43.9902 51.1183 48.8728 51.1185H50.4978V47.6596L50.0219 47.1838C48.1444 45.3008 46.6566 43.0661 45.6436 40.6075ZM37.71 43.7045L35.5608 41.8417L34.8442 41.9296C34.1072 42.0197 33.3653 42.0649 32.6228 42.0649C24.5587 42.0649 17.9978 36.8059 17.9978 30.3418C17.9978 23.8776 24.5587 18.6185 32.6228 18.6185C40.6869 18.6185 47.2478 23.8775 47.2478 30.3418C47.2478 33.5623 45.6411 36.569 42.7236 38.8078L41.7877 39.526L42.2195 40.7483C43.1045 43.2447 44.4053 45.5734 46.0669 47.636C42.9726 47.1194 40.0808 45.759 37.71 43.7045Z" fill="black"/>
<path d="M6.23534 32.9872C7.75647 31.0617 8.95078 28.8993 9.77053 26.5864L10.1991 25.3702L9.26404 24.6526C6.51291 22.5415 4.9978 19.7081 4.9978 16.6743C4.9978 10.5781 11.194 5.61853 18.8103 5.61853C24.4133 5.61853 29.2476 8.30283 31.4119 12.149C31.8138 12.1295 32.2174 12.1185 32.6228 12.1185C33.4371 12.1185 34.244 12.158 35.0434 12.2371C34.2071 10.0702 32.7545 8.09219 30.7575 6.45195C27.552 3.81874 23.3095 2.36853 18.8103 2.36853C14.3111 2.36853 10.0686 3.81874 6.8629 6.45195C3.56435 9.16154 1.7478 12.7919 1.7478 16.6743C1.7478 20.3103 3.40855 23.8137 6.34351 26.449C5.38571 28.754 3.9862 30.8492 2.22383 32.6168L1.7478 33.0927V36.4935H3.3728C6.37774 36.4932 9.34135 35.7934 12.0291 34.4496C11.7344 33.3325 11.5617 32.1868 11.5141 31.0325C9.88273 31.9886 8.09593 32.6502 6.23534 32.9872Z" fill="black"/>
</svg>
