<svg width="20" height="20" viewBox="0 0 20 20" fill="none" xmlns="http://www.w3.org/2000/svg">
<path d="M10 20C8.02219 20 6.08879 19.4135 4.4443 18.3147C2.79981 17.2159 1.51809 15.6541 0.761209 13.8268C0.00433283 11.9996 -0.1937 9.98891 0.192152 8.0491C0.578004 6.10929 1.53041 4.32746 2.92894 2.92894C4.32746 1.53041 6.10929 0.578004 8.0491 0.192152C9.98891 -0.1937 11.9996 0.00433283 13.8268 0.761209C15.6541 1.51809 17.2159 2.79981 18.3147 4.4443C19.4135 6.08879 20 8.02219 20 10C20 12.6522 18.9464 15.1957 17.0711 17.0711C15.1957 18.9464 12.6522 20 10 20ZM10 1.42858C8.30473 1.42858 6.64754 1.93128 5.23797 2.87312C3.82841 3.81496 2.72979 5.15364 2.08104 6.71986C1.43229 8.28608 1.26254 10.0095 1.59327 11.6722C1.924 13.3349 2.74035 14.8622 3.93909 16.0609C5.13782 17.2597 6.66511 18.076 8.3278 18.4067C9.99049 18.7375 11.7139 18.5677 13.2801 17.919C14.8464 17.2702 16.185 16.1716 17.1269 14.762C18.0687 13.3525 18.5714 11.6953 18.5714 10C18.5714 7.72672 17.6684 5.54654 16.0609 3.93909C14.4535 2.33163 12.2733 1.42858 10 1.42858Z" fill="black"/>
<path d="M12.9929 14L9 10.2733V4H10.4286V9.72L14 13.06L12.9929 14Z" fill="black"/>
</svg>
