<svg xmlns="http://www.w3.org/2000/svg" width="20" height="20" fill="none" viewBox="0 0 20 20"><path fill="#000" fill-rule="evenodd" d="M20 10C20 15.5231 15.5231 20 10 20C4.47686 20 0 15.5231 0 10C0 4.47686 4.47686 0 10 0C15.5231 0 20 4.47686 20 10ZM19 10C19 5.02914 14.9709 1 10 1C5.02914 1 1 5.02914 1 10C1 14.9709 5.02914 19 10 19C14.9709 19 19 14.9709 19 10ZM9.85681 7.5018C9.95489 7.75994 10.2437 7.88968 10.5018 7.79159L13.2324 6.75401L11.6562 10.9461L8.73475 8.02465C8.36687 7.66016 7.74989 7.79804 7.56844 8.27856L5.60613 13.5024C5.39219 14.0729 5.94904 14.631 6.5202 14.4134L9.87387 13.1386C10.132 13.0404 10.2617 12.7517 10.1636 12.4935C10.0654 12.2354 9.77665 12.1057 9.51853 12.2038L6.76961 13.2488L8.34661 9.05071L11.2686 11.9728C11.6312 12.3388 12.2523 12.2 12.434 11.7188L14.3962 6.50017C14.6128 5.93162 14.0565 5.37398 13.4856 5.58804L10.1466 6.85681C9.88846 6.95489 9.75872 7.24367 9.85681 7.5018Z" clip-rule="evenodd"/></svg>