<svg width="36" height="36" viewBox="0 0 36 36" fill="none" xmlns="http://www.w3.org/2000/svg">
<path d="M10.5 18C4.5 18 4.5 20.685 4.5 24V25.5C4.5 29.64 4.5 33 12 33H24C30 33 31.5 29.64 31.5 25.5V24C31.5 20.685 31.5 18 25.5 18C24 18 23.58 18.315 22.8 18.9L21.27 20.52C19.5 22.41 16.5 22.41 14.715 20.52L13.2 18.9C12.42 18.315 12 18 10.5 18Z" stroke="#292D32" stroke-width="1.5" stroke-miterlimit="10" stroke-linecap="round" stroke-linejoin="round"/>
<path d="M28.5 18V9C28.5 5.685 28.5 3 22.5 3H13.5C7.5 3 7.5 5.685 7.5 9V18" stroke="#292D32" stroke-width="1.5" stroke-miterlimit="10" stroke-linecap="round" stroke-linejoin="round"/>
<path d="M15.825 13.845H20.82" stroke="#292D32" stroke-width="1.5" stroke-linecap="round" stroke-linejoin="round"/>
<path d="M14.58 9.34497H22.08" stroke="#292D32" stroke-width="1.5" stroke-linecap="round" stroke-linejoin="round"/>
</svg>
