<svg width="41" height="41" viewBox="0 0 41 41" fill="none" xmlns="http://www.w3.org/2000/svg">
<path d="M15.375 37.5834H25.625C34.1667 37.5834 37.5833 34.1667 37.5833 25.625V15.375C37.5833 6.83335 34.1667 3.41669 25.625 3.41669H15.375C6.83334 3.41669 3.41667 6.83335 3.41667 15.375V25.625C3.41667 34.1667 6.83334 37.5834 15.375 37.5834Z" stroke="#292D32" stroke-width="1.5" stroke-linecap="round" stroke-linejoin="round"/>
<path d="M3.41667 22.2083H9.84001C11.1383 22.2083 12.3171 22.9429 12.8979 24.1046L14.4183 27.1625C15.375 29.0416 17.0833 29.0416 17.4933 29.0416H23.5238C24.8221 29.0416 26.0008 28.3071 26.5817 27.1454L28.1021 24.0875C28.6829 22.9258 29.8617 22.1912 31.16 22.1912H37.5492" stroke="#292D32" stroke-width="1.5" stroke-linecap="round" stroke-linejoin="round"/>
<path d="M17.6642 11.9583H23.3529" stroke="#292D32" stroke-width="1.5" stroke-linecap="round" stroke-linejoin="round"/>
<path d="M16.2292 17.0833H24.7708" stroke="#292D32" stroke-width="1.5" stroke-linecap="round" stroke-linejoin="round"/>
</svg>
