<svg width="58" height="58" viewBox="0 0 58 58" fill="none" xmlns="http://www.w3.org/2000/svg">
<path d="M14.5 15.1042V19.9376" stroke="#292D32" stroke-width="1.5" stroke-linecap="round" stroke-linejoin="round"/>
<path d="M53.1663 28.9999V21.7499C53.1663 9.66659 48.333 4.83325 36.2497 4.83325H21.7497C9.66634 4.83325 4.83301 9.66659 4.83301 21.7499V36.2499C4.83301 48.3333 9.66634 53.1666 21.7497 53.1666H28.9997" stroke="#292D32" stroke-width="1.5" stroke-linecap="round" stroke-linejoin="round"/>
<path d="M24.167 15.1042V19.9376" stroke="#292D32" stroke-width="1.5" stroke-linecap="round" stroke-linejoin="round"/>
<path d="M14.5 38.6667V43.5001" stroke="#292D32" stroke-width="1.5" stroke-linecap="round" stroke-linejoin="round"/>
<path d="M24.167 38.6667V43.5001" stroke="#292D32" stroke-width="1.5" stroke-linecap="round" stroke-linejoin="round"/>
<path d="M33.833 17.5208H43.4997" stroke="#292D32" stroke-width="1.5" stroke-linecap="round" stroke-linejoin="round"/>
<path d="M4.83301 29H53.1663" stroke="#292D32" stroke-width="1.5" stroke-linecap="round" stroke-linejoin="round"/>
<path d="M52.1041 49.1309C50.7508 51.4751 48.2133 53.0459 45.3133 53.0459C40.9875 53.0459 38.3291 48.6959 38.3291 48.6959M38.4983 41.3009C39.8516 38.9326 42.3891 37.3618 45.3133 37.3618C50.5575 37.3618 53.1675 41.7117 53.1675 41.7117M53.1675 36.8542V41.6876H48.3341M43.1624 48.6717H38.3291V53.1667" stroke="#292D32" stroke-width="1.5" stroke-linecap="round" stroke-linejoin="round"/>
</svg>
