<svg width="49" height="49" viewBox="0 0 49 49" fill="none" xmlns="http://www.w3.org/2000/svg">
<path d="M4.86108 10.2435C4.86108 8.65223 5.49323 7.12611 6.61844 6.00089C7.74366 4.87567 9.26978 4.24353 10.8611 4.24353H38.8611C40.4524 4.24353 41.9785 4.87567 43.1037 6.00089C44.2289 7.12611 44.8611 8.65223 44.8611 10.2435V25.8635C43.9685 25.0061 42.9584 24.2801 41.8611 23.7075V19.2435H21.9811L25.4211 22.6835C25.5685 22.8209 25.6867 22.9865 25.7686 23.1705C25.8506 23.3545 25.8947 23.5531 25.8983 23.7545C25.9018 23.9559 25.8648 24.1559 25.7893 24.3427C25.7139 24.5295 25.6016 24.6992 25.4592 24.8416C25.3167 24.984 25.1471 25.0963 24.9603 25.1718C24.7735 25.2472 24.5734 25.2843 24.372 25.2807C24.1706 25.2772 23.972 25.2331 23.788 25.1511C23.604 25.0691 23.4384 24.9509 23.3011 24.8035L19.8611 21.3635V31.2435H23.4871C23.1791 32.1995 22.9771 33.2035 22.8991 34.2435H10.8611C9.26978 34.2435 7.74366 33.6114 6.61844 32.4862C5.49323 31.361 4.86108 29.8348 4.86108 28.2435V10.2435ZM10.8611 7.24353C10.0654 7.24353 9.30237 7.5596 8.73976 8.12221C8.17715 8.68482 7.86108 9.44788 7.86108 10.2435V16.2435H10.2771C9.87441 15.3223 9.75883 14.301 9.94541 13.3131C10.132 12.3251 10.6121 11.4164 11.323 10.7055C12.034 9.99454 12.9427 9.51444 13.9306 9.32786C14.9186 9.14127 15.9398 9.25686 16.8611 9.65953V7.24353H10.8611ZM19.8611 7.24353V9.65953C20.7823 9.25686 21.8036 9.14127 22.7915 9.32786C23.7795 9.51444 24.6882 9.99454 25.3991 10.7055C26.1101 11.4164 26.5902 12.3251 26.7768 13.3131C26.9633 14.301 26.8478 15.3223 26.4451 16.2435H41.8611V10.2435C41.8611 9.44788 41.545 8.68482 40.9824 8.12221C40.4198 7.5596 39.6567 7.24353 38.8611 7.24353H19.8611ZM16.8611 31.2435V21.3635L13.4211 24.8035C13.1367 25.0685 12.7606 25.2127 12.372 25.2059C11.9834 25.199 11.6127 25.0416 11.3378 24.7668C11.063 24.4919 10.9056 24.1212 10.8987 23.7326C10.8919 23.344 11.0361 22.9679 11.3011 22.6835L14.7411 19.2435H7.86108V28.2435C7.86108 29.0392 8.17715 29.8022 8.73976 30.3649C9.30237 30.9275 10.0654 31.2435 10.8611 31.2435H16.8611ZM21.8611 16.2435C22.2566 16.2435 22.6433 16.1262 22.9722 15.9065C23.3011 15.6867 23.5575 15.3743 23.7088 15.0089C23.8602 14.6434 23.8998 14.2413 23.8227 13.8533C23.7455 13.4654 23.555 13.109 23.2753 12.8293C22.9956 12.5496 22.6392 12.3591 22.2513 12.282C21.8633 12.2048 21.4612 12.2444 21.0957 12.3958C20.7303 12.5471 20.4179 12.8035 20.1981 13.1324C19.9784 13.4613 19.8611 13.848 19.8611 14.2435V16.2435H21.8611ZM16.8611 14.2355C16.8595 13.8403 16.7409 13.4544 16.5201 13.1266C16.2994 12.7987 15.9865 12.5436 15.6209 12.3935C15.2553 12.2433 14.8535 12.2049 14.466 12.2829C14.0786 12.361 13.723 12.5521 13.4441 12.8321C13.1652 13.1122 12.9755 13.4685 12.8989 13.8563C12.8224 14.244 12.8625 14.6457 13.0141 15.0107C13.1657 15.3757 13.4221 15.6876 13.7508 15.907C14.0795 16.1264 14.4659 16.2435 14.8611 16.2435H16.8611V14.2355ZM46.8611 35.2435C46.8611 32.3261 45.7022 29.5283 43.6393 27.4654C41.5764 25.4025 38.7785 24.2435 35.8611 24.2435C32.9437 24.2435 30.1458 25.4025 28.0829 27.4654C26.02 29.5283 24.8611 32.3261 24.8611 35.2435C24.8611 38.1609 26.02 40.9588 28.0829 43.0217C30.1458 45.0846 32.9437 46.2435 35.8611 46.2435C38.7785 46.2435 41.5764 45.0846 43.6393 43.0217C45.7022 40.9588 46.8611 38.1609 46.8611 35.2435ZM36.8611 36.2435L36.8631 41.2495C36.8631 41.5147 36.7577 41.7691 36.5702 41.9566C36.3827 42.1442 36.1283 42.2495 35.8631 42.2495C35.5979 42.2495 35.3435 42.1442 35.156 41.9566C34.9684 41.7691 34.8631 41.5147 34.8631 41.2495V36.2435H29.8531C29.5879 36.2435 29.3335 36.1382 29.146 35.9506C28.9584 35.7631 28.8531 35.5087 28.8531 35.2435C28.8531 34.9783 28.9584 34.724 29.146 34.5364C29.3335 34.3489 29.5879 34.2435 29.8531 34.2435H34.8611V29.2435C34.8611 28.9783 34.9664 28.724 35.154 28.5364C35.3415 28.3489 35.5959 28.2435 35.8611 28.2435C36.1263 28.2435 36.3807 28.3489 36.5682 28.5364C36.7557 28.724 36.8611 28.9783 36.8611 29.2435V34.2435H41.8551C42.1203 34.2435 42.3747 34.3489 42.5622 34.5364C42.7497 34.724 42.8551 34.9783 42.8551 35.2435C42.8551 35.5087 42.7497 35.7631 42.5622 35.9506C42.3747 36.1382 42.1203 36.2435 41.8551 36.2435H36.8611Z" fill="black"/>
</svg>
