<svg width="46" height="46" viewBox="0 0 46 46" fill="none" xmlns="http://www.w3.org/2000/svg">
<path d="M7.76461 20.8178C7.10985 16.9687 9.82386 13.4167 13.4197 13.4167H32.5808C36.1347 13.4167 38.838 16.8907 38.2537 20.7071L36.0628 35.0182C35.6006 38.0372 33.2012 40.25 30.3898 40.25H15.8541C13.0817 40.25 10.7038 38.0967 10.199 35.129L7.76461 20.8178Z" stroke="#292D32" stroke-width="1.5"/>
<path d="M23.0001 9.58333C23.0001 7.46901 24.7163 5.75 26.8334 5.75C28.9505 5.75 30.6667 7.46624 30.6667 9.58333C30.6667 11.7004 28.9505 13.4167 26.8334 13.4167H23.0001M23.0001 9.58333C23.0001 11.0803 23.0001 13.4167 23.0001 13.4167M23.0001 9.58333C23.0001 7.46901 21.2838 5.75 19.1667 5.75C17.0497 5.75 15.3334 7.46624 15.3334 9.58333C15.3334 11.7004 17.1509 13.4167 19.1667 13.4167C21.0834 13.4167 23.0001 13.4167 23.0001 13.4167" stroke="#292D32" stroke-width="1.5" stroke-linecap="round" stroke-linejoin="round"/>
<path d="M23 9.58334V40.25" stroke="#292D32" stroke-width="1.5"/>
</svg>
