<svg width="46" height="46" viewBox="0 0 46 46" fill="none" xmlns="http://www.w3.org/2000/svg">
<path d="M38.3334 23.9583V14.3C38.3334 12.7536 37.0798 11.5 35.5334 11.5H10.4667C8.92035 11.5 7.66675 12.7536 7.66675 14.3V31.7C7.66675 33.2464 8.92035 34.5 10.4667 34.5H28.1112" stroke="#292D32" stroke-width="1.5" stroke-linecap="round"/>
<path d="M35.1952 28.7499L35.1018 33.8797" stroke="#292D32" stroke-width="1.5" stroke-miterlimit="10" stroke-linecap="round" stroke-linejoin="round"/>
<path d="M37.7133 31.3616L32.5835 31.2681" stroke="#292D32" stroke-width="1.5" stroke-miterlimit="10" stroke-linecap="round" stroke-linejoin="round"/>
<path d="M17.2083 26.4574L16.6091 26.4893L16.6108 26.521L16.6158 26.5524L17.2083 26.4574ZM28.8941 26.4114L29.488 26.4971L29.4931 26.4614L29.4939 26.4254L28.8941 26.4114ZM28.9688 23.2129L28.375 23.1273L28.3698 23.1629L28.369 23.1989L28.9688 23.2129ZM17.0383 23.259L17.6374 23.2271L17.6358 23.1954L17.6307 23.164L17.0383 23.259ZM23 18.5923H22.4V18.5923L23 18.5923ZM19.2512 20.7846H26.749V19.5846H19.2512V20.7846ZM28.369 23.1989L28.2943 26.3974L29.4939 26.4254L29.5687 23.227L28.369 23.1989ZM26.6742 27.9846H19.4211V29.1846H26.6742V27.9846ZM17.8074 26.4256L17.6374 23.2271L16.4391 23.2908L16.6091 26.4893L17.8074 26.4256ZM19.4211 27.9846C18.6915 27.9846 17.9619 27.3683 17.8007 26.3625L16.6158 26.5524C16.8497 28.012 17.981 29.1846 19.4211 29.1846V27.9846ZM28.3002 26.3258C28.1524 27.3507 27.4138 27.9846 26.6742 27.9846V29.1846C28.1349 29.1846 29.2741 27.9802 29.488 26.4971L28.3002 26.3258ZM26.749 20.7846C27.6785 20.7846 28.5661 21.8022 28.375 23.1273L29.5627 23.2986C29.8288 21.4532 28.6007 19.5846 26.749 19.5846V20.7846ZM19.2512 19.5846C17.3773 19.5846 16.1478 21.4937 16.4459 23.3539L17.6307 23.164C17.4164 21.8264 18.3109 20.7846 19.2512 20.7846V19.5846ZM24.5 17.6C24.9638 17.6 25.4 18.01 25.4 18.5923H26.6C26.6 17.4158 25.6931 16.4 24.5 16.4V17.6ZM25.4 18.5923C25.4 19.1746 24.9638 19.5846 24.5 19.5846V20.7846C25.6931 20.7846 26.6 19.7688 26.6 18.5923H25.4ZM23.6 18.5923C23.6 18.0109 24.0365 17.6 24.5 17.6V16.4C23.3067 16.4 22.4 17.4172 22.4 18.5923H23.6ZM24.5 19.5846H23V20.7846H24.5V19.5846ZM23.6 20.1846V18.5923H22.4V20.1846H23.6ZM23.6 18.5923C23.6 17.4172 22.6933 16.4 21.5 16.4V17.6C21.9635 17.6 22.4 18.0109 22.4 18.5923H23.6ZM21.5 16.4C20.3069 16.4 19.4 17.4158 19.4 18.5923H20.6C20.6 18.01 21.0362 17.6 21.5 17.6V16.4ZM19.4 18.5923C19.4 19.7793 20.3565 20.7846 21.5 20.7846V19.5846C21.0659 19.5846 20.6 19.1641 20.6 18.5923H19.4ZM21.5 20.7846H23V19.5846H21.5V20.7846ZM22.4 18.5923L22.4 29L23.6 29L23.6 18.5923L22.4 18.5923Z" fill="#292D32"/>
</svg>
