<svg width="67" height="67" viewBox="0 0 67 67" fill="none" xmlns="http://www.w3.org/2000/svg">
<rect x="4.58911" y="28.4521" width="56.9041" height="35.7945" fill="white"/>
<rect x="1.83569" y="19.2739" width="62.411" height="9.17808" fill="#F9D1DE"/>
<path fill-rule="evenodd" clip-rule="evenodd" d="M10.5498 12.1547C10.9845 13.7795 11.7431 15.344 12.7585 16.7686H5.025C2.24737 16.7686 0 19.0151 0 21.7917V25.1405C0 27.9171 2.24737 30.1636 5.025 30.1636H31.825V58.6281C31.825 59.5528 32.5749 60.3025 33.5 60.3025C34.4251 60.3025 35.175 59.5528 35.175 58.6281V30.1636H60.3V61.9769C60.3 62.904 59.5525 63.6512 58.625 63.6512H8.375C7.44753 63.6512 6.7 62.904 6.7 61.9769V32.4735C6.7 31.5488 5.95008 30.7991 5.025 30.7991C4.09992 30.7991 3.35 31.5488 3.35 32.4735V61.9769C3.35 64.7535 5.59737 67 8.375 67H58.625C61.4026 67 63.65 64.7535 63.65 61.9769V29.8784C65.6027 29.1896 67 27.3298 67 25.1405V21.7917C67 19.0151 64.7526 16.7686 61.975 16.7686H54.2464C55.2609 15.3454 56.0196 13.7813 56.4568 12.1553C58.2242 5.55768 54.1523 0 47.4826 0C44.0981 0 40.3857 1.44383 37.3988 3.84151C36.6775 4.42052 36.5624 5.4744 37.1416 6.19543C37.7208 6.91646 38.7751 7.03159 39.4964 6.45259C41.9156 4.51061 44.9029 3.34876 47.4826 3.34876C51.9118 3.34876 54.4279 6.78298 53.2212 11.2875C52.6838 13.2861 51.4765 15.2118 49.8135 16.7686H35.175V15.2046C35.177 15.1741 35.1782 15.1433 35.1786 15.1124C35.1923 13.9398 35.0343 12.2859 34.7617 11.2821C33.1147 5.13379 25.9801 0 19.5241 0C12.8509 0 8.77865 5.55816 10.5498 12.1547ZM13.7857 11.288C14.3195 13.2832 15.5267 15.2089 17.1905 16.7686H31.825V15.0942C31.825 15.0532 31.8265 15.0125 31.8294 14.9722C31.8294 14.0846 31.7024 12.799 31.5272 12.1538C30.2823 7.50663 24.504 3.34876 19.5241 3.34876C15.0917 3.34876 12.5759 6.7825 13.7857 11.288ZM35.175 26.8149H61.975C62.9025 26.8149 63.65 26.0676 63.65 25.1405V21.7917C63.65 20.8646 62.9025 20.1173 61.975 20.1173H35.175V26.8149ZM31.825 20.1173H5.025C4.09753 20.1173 3.35 20.8646 3.35 21.7917V25.1405C3.35 26.0676 4.09753 26.8149 5.025 26.8149H31.825V20.1173Z" fill="#292D32"/>
</svg>
