<svg width="20" height="21" viewBox="0 0 20 21" fill="none" xmlns="http://www.w3.org/2000/svg">
<path fill-rule="evenodd" clip-rule="evenodd" d="M3.14919 3.62961C3.27896 4.11482 3.5054 4.58199 3.80852 5.0074H1.5C0.670858 5.0074 0 5.67826 0 6.5074V7.5074C0 8.33654 0.670858 9.0074 1.5 9.0074H9.5V17.5074C9.5 17.7835 9.72386 18.0074 10 18.0074C10.2761 18.0074 10.5 17.7835 10.5 17.5074V9.0074H18V18.5074C18 18.7843 17.7769 19.0074 17.5 19.0074H2.5C2.22314 19.0074 2 18.7843 2 18.5074V10.5194C2 10.2433 1.77614 10.0194 1.5 10.0194C1.22386 10.0194 1 10.2433 1 10.5194V18.5074C1 19.3365 1.67086 20.0074 2.5 20.0074H17.5C18.3291 20.0074 19 19.3365 19 18.5074V8.92222C19.5829 8.71655 20 8.16118 20 7.5074V6.5074C20 5.67826 19.3291 5.0074 18.5 5.0074H16.193C16.4958 4.58241 16.7223 4.11535 16.8528 3.62978C17.3804 1.65962 16.1649 0 14.1739 0C13.1636 0 12.0554 0.431152 11.1638 1.14714C10.9485 1.32004 10.9141 1.63476 11.087 1.85007C11.2599 2.06538 11.5747 2.09976 11.79 1.92686C12.5121 1.34695 13.4039 1 14.1739 1C15.4961 1 16.2471 2.02552 15.8869 3.37066C15.7265 3.96747 15.3661 4.5425 14.8697 5.0074H10.5V4.54035C10.5006 4.53125 10.501 4.52207 10.5011 4.51284C10.5052 4.16268 10.458 3.66879 10.3766 3.36902C9.88498 1.53304 7.75525 0 5.8281 0C3.83608 0 2.62049 1.65977 3.14919 3.62961ZM4.11512 3.37081C4.27447 3.96659 4.63483 4.54164 5.13148 5.0074H9.5V4.5074C9.5 4.49515 9.50044 4.483 9.50131 4.47097C9.50132 4.20591 9.46341 3.822 9.41112 3.62934C9.0395 2.24161 7.31462 1 5.8281 1C4.50498 1 3.75401 2.02538 4.11512 3.37081ZM10.5 8.0074H18.5C18.7769 8.0074 19 7.78426 19 7.5074V6.5074C19 6.23054 18.7769 6.0074 18.5 6.0074H10.5V8.0074ZM9.5 6.0074H1.5C1.22314 6.0074 1 6.23054 1 6.5074V7.5074C1 7.78426 1.22314 8.0074 1.5 8.0074H9.5V6.0074Z" fill="black"/>
</svg>
