<svg width="94" height="94" viewBox="0 0 94 94" fill="none" xmlns="http://www.w3.org/2000/svg">
<path d="M78.2157 39.1667H15.5491V70.5001C15.5491 82.2501 19.4657 86.1668 31.2157 86.1668H62.5491C74.2991 86.1668 78.2157 82.2501 78.2157 70.5001V39.1667Z" stroke="#292D32" stroke-width="4" stroke-miterlimit="10" stroke-linecap="round" stroke-linejoin="round"/>
<path d="M84.2084 27.4166V31.3333C84.2084 35.6416 82.1326 39.1666 76.3751 39.1666H17.6251C11.6326 39.1666 9.79175 35.6416 9.79175 31.3333V27.4166C9.79175 23.1083 11.6326 19.5833 17.6251 19.5833H76.3751C82.1326 19.5833 84.2084 23.1083 84.2084 27.4166Z" fill="#F9D1DE" stroke="#292D32" stroke-width="4" stroke-miterlimit="10" stroke-linecap="round" stroke-linejoin="round"/>
<path d="M45.59 19.5832H23.97C22.6383 18.1341 22.6775 15.9016 24.0875 14.4916L29.6491 8.92989C31.0983 7.48073 33.4875 7.48073 34.9366 8.92989L45.59 19.5832Z" stroke="#292D32" stroke-width="4" stroke-miterlimit="10" stroke-linecap="round" stroke-linejoin="round"/>
<path d="M69.9911 19.5832H48.3711L59.0244 8.92989C60.4736 7.48073 62.8628 7.48073 64.3119 8.92989L69.8736 14.4916C71.2836 15.9016 71.3228 18.1341 69.9911 19.5832Z" stroke="#292D32" stroke-width="4" stroke-miterlimit="10" stroke-linecap="round" stroke-linejoin="round"/>
<path d="M35.0149 39.1667V59.2984C35.0149 62.4317 38.4616 64.2726 41.0857 62.5884L44.7674 60.1601C46.0991 59.2984 47.7832 59.2984 49.0757 60.1601L52.5616 62.5101C55.1466 64.2334 58.6324 62.3926 58.6324 59.2592V39.1667H35.0149Z" stroke="#292D32" stroke-width="4" stroke-miterlimit="10" stroke-linecap="round" stroke-linejoin="round"/>
</svg>
