<svg width="90" height="90" viewBox="0 0 90 90" fill="none" xmlns="http://www.w3.org/2000/svg">
<path d="M71.25 33.75C71.25 39.1875 69.6375 44.1751 66.8625 48.3376C62.8125 54.3376 56.4 58.575 48.9375 59.6625C47.6625 59.8875 46.35 60 45 60C43.65 60 42.3375 59.8875 41.0625 59.6625C33.6 58.575 27.1875 54.3376 23.1375 48.3376C20.3625 44.1751 18.75 39.1875 18.75 33.75C18.75 19.2375 30.4875 7.5 45 7.5C59.5125 7.5 71.25 19.2375 71.25 33.75Z" fill="white" stroke="#292D32" stroke-width="4" stroke-linecap="round" stroke-linejoin="round"/>
<path d="M79.6878 69.2623L73.5003 70.7247C72.1128 71.0622 71.0253 72.1123 70.7253 73.4998L69.4128 79.0123C68.7003 82.0123 64.8753 82.9123 62.8878 80.5498L45.0003 59.9998L27.1128 80.5872C25.1253 82.9497 21.3003 82.0497 20.5878 79.0497L19.2753 73.5372C18.9378 72.1497 17.8503 71.0623 16.5003 70.7623L10.3128 69.2998C7.4628 68.6248 6.45029 65.0622 8.51279 62.9997L23.1378 48.3748C27.1878 54.3748 33.6003 58.6123 41.0628 59.6998C42.3378 59.9248 43.6503 60.0373 45.0003 60.0373C46.3503 60.0373 47.6628 59.9248 48.9378 59.6998C56.4003 58.6123 62.8128 54.3748 66.8628 48.3748L81.4878 62.9997C83.5503 65.0247 82.5378 68.5873 79.6878 69.2623Z" fill="white" stroke="#292D32" stroke-width="4" stroke-linecap="round" stroke-linejoin="round"/>
<path d="M47.1749 22.425L49.3874 26.85C49.6874 27.45 50.4749 28.05 51.1874 28.1625L55.1999 28.8375C57.7499 29.25 58.3499 31.125 56.5124 32.9625L53.3999 36.0749C52.8749 36.5999 52.5749 37.6125 52.7624 38.3625L53.6624 42.225C54.3749 45.2625 52.7624 46.4624 50.0624 44.8499L46.3124 42.6374C45.6374 42.2249 44.5124 42.2249 43.8374 42.6374L40.0874 44.8499C37.3874 46.4249 35.7749 45.2625 36.4874 42.225L37.3874 38.3625C37.5374 37.65 37.2749 36.5999 36.7499 36.0749L33.6374 32.9625C31.7999 31.125 32.3999 29.2875 34.9499 28.8375L38.9624 28.1625C39.6374 28.05 40.4249 27.45 40.7249 26.85L42.9374 22.425C44.0249 20.025 45.9749 20.025 47.1749 22.425Z" fill="#F9D1DE" stroke="#292D32" stroke-width="4" stroke-linecap="round" stroke-linejoin="round"/>
</svg>
