<svg width="91" height="91" viewBox="0 0 91 91" fill="none" xmlns="http://www.w3.org/2000/svg">
<path fill-rule="evenodd" clip-rule="evenodd" d="M66.4868 10.9161C64.3537 8.78366 61.4609 7.5857 58.4447 7.5857C55.4285 7.5857 52.5357 8.78366 50.4026 10.9161L45.0412 16.2776C44.8137 16.5051 44.5938 16.7401 44.389 16.9828C44.1828 16.7388 43.9665 16.5035 43.7406 16.2776L38.3716 10.9161C37.3285 9.80481 36.0727 8.91445 34.6787 8.29794C33.2848 7.68144 31.7811 7.35137 30.2571 7.32734C28.7331 7.30331 27.2198 7.58581 25.8071 8.15806C24.3944 8.73031 23.1111 9.58064 22.0335 10.6585C20.9559 11.7364 20.1058 13.0199 19.5339 14.4327C18.962 15.8456 18.6799 17.3589 18.7042 18.8829C18.7286 20.4069 19.0591 21.9105 19.6759 23.3043C20.2927 24.6981 21.1834 25.9537 22.295 26.9966L25.6203 30.3333H3.79163V53.0833H11.375V83.4166H79.625V53.0833H87.2083V30.3333H63.1577L66.4868 27.0004C68.6193 24.8673 69.8173 21.9745 69.8173 18.9583C69.8173 15.942 68.6193 13.0493 66.4868 10.9161ZM55.764 26.9966L61.1254 21.6352C61.8161 20.9201 62.1983 19.9623 62.1896 18.9681C62.181 17.974 61.7822 17.023 61.0792 16.32C60.3762 15.617 59.4252 15.2182 58.4311 15.2095C57.4369 15.2009 56.4791 15.5831 55.764 16.2738L50.4026 21.6352C49.7119 22.3503 49.3297 23.3081 49.3384 24.3023C49.347 25.2964 49.7458 26.2474 50.4488 26.9504C51.1518 27.6534 52.1028 28.0522 53.0969 28.0608C54.0911 28.0695 55.0489 27.6873 55.764 26.9966ZM38.3754 21.6352L33.014 16.2776C32.6642 15.9154 32.2458 15.6266 31.7832 15.4278C31.3206 15.2291 30.8231 15.1245 30.3196 15.1202C29.8162 15.1158 29.3169 15.2117 28.8509 15.4024C28.3849 15.593 27.9616 15.8746 27.6056 16.2306C27.2496 16.5866 26.968 17.0099 26.7774 17.4759C26.5867 17.9419 26.4908 18.4412 26.4952 18.9446C26.4995 19.4481 26.6041 19.9456 26.8029 20.4082C27.0016 20.8708 27.2904 21.2892 27.6526 21.639L33.014 27.0004C33.3638 27.3625 33.7822 27.6514 34.2448 27.8501C34.7074 28.0488 35.2049 28.1534 35.7084 28.1578C36.2118 28.1622 36.7111 28.0662 37.1771 27.8756C37.6431 27.6849 38.0664 27.4034 38.4224 27.0474C38.7784 26.6914 39.06 26.268 39.2506 25.8021C39.4413 25.3361 39.5372 24.8368 39.5328 24.3333C39.5285 23.8299 39.4239 23.3323 39.2251 22.8697C39.0264 22.4071 38.7376 21.9887 38.3754 21.639V21.6352ZM79.625 37.9166V45.4999H11.375V37.9166H79.625ZM48.9769 53.0833H72.0416V75.8333H48.9769V53.0833ZM42.023 53.0833V75.8333H18.9583V53.0833H42.023Z" fill="black"/>
</svg>
