<svg width="24" height="24" viewBox="0 0 24 24" fill="none" xmlns="http://www.w3.org/2000/svg">
<path d="M10.998 16L15.998 12L10.998 8V11H1.99805V13H10.998V16Z" fill="white"/>
<path d="M12.9988 2.99906C11.8163 2.99578 10.6449 3.22717 9.55251 3.67982C8.4601 4.13247 7.46837 4.79739 6.63477 5.63606L8.04877 7.05006C9.37077 5.72806 11.1288 4.99906 12.9988 4.99906C14.8688 4.99906 16.6268 5.72806 17.9488 7.05006C19.2708 8.37206 19.9998 10.1301 19.9998 12.0001C19.9998 13.8701 19.2708 15.6281 17.9488 16.9501C16.6268 18.2721 14.8688 19.0011 12.9988 19.0011C11.1288 19.0011 9.37077 18.2721 8.04877 16.9501L6.63477 18.3641C8.33377 20.0641 10.5938 21.0011 12.9988 21.0011C15.4038 21.0011 17.6638 20.0641 19.3628 18.3641C21.0628 16.6651 21.9998 14.4051 21.9998 12.0001C21.9998 9.59506 21.0628 7.33506 19.3628 5.63606C18.5292 4.79739 17.5374 4.13247 16.445 3.67982C15.3526 3.22717 14.1812 2.99578 12.9988 2.99906Z" fill="white"/>
</svg>
