<svg width="20" height="21" viewBox="0 0 20 21" fill="none" xmlns="http://www.w3.org/2000/svg">
<path fill-rule="evenodd" clip-rule="evenodd" d="M19.7358 10.3037C20.104 9.7044 20.0271 8.92847 19.4897 8.42205L11.0122 0.409573C10.4332 -0.136459 9.53037 -0.136459 8.95175 0.409183L0.472361 8.42255C-0.513347 9.35425 0.146503 11.013 1.50279 11.013H2.96329V18.5036C2.96329 19.3324 3.63488 20.0036 4.46329 20.0036H15.5003C16.3287 20.0036 17.0003 19.3324 17.0003 18.5036V9.47855C17.0003 8.64968 16.3287 7.97855 15.5003 7.97855H4.46329C3.63488 7.97855 2.96329 8.64968 2.96329 9.47855V10.013H1.50279C1.05105 10.013 0.830937 9.45964 1.15925 9.14932L9.63821 1.13635C9.8312 0.954362 10.1324 0.954362 10.3258 1.13672L18.8033 9.14933C18.9829 9.31855 19.01 9.5653 18.8898 9.77021C18.8879 9.77317 18.886 9.77616 18.8841 9.77917C18.7934 9.92628 18.645 10.0127 18.4607 10.0127C18.1845 10.0127 17.9607 10.2365 17.9607 10.5127C17.9607 10.7888 18.1845 11.0127 18.4607 11.0127C18.992 11.0127 19.454 10.7478 19.7249 10.3207C19.7286 10.3151 19.7323 10.3094 19.7358 10.3037ZM3.96329 18.5036V11.013H9.91879C10.1949 11.013 10.4188 10.7891 10.4188 10.513C10.4188 10.2368 10.1949 10.013 9.91879 10.013H3.96329V9.47855C3.96329 9.20212 4.18701 8.97855 4.46329 8.97855H15.5003C15.7766 8.97855 16.0003 9.20212 16.0003 9.47855V18.5036C16.0003 18.78 15.7766 19.0036 15.5003 19.0036H4.46329C4.18701 19.0036 3.96329 18.78 3.96329 18.5036Z" fill="black"/>
</svg>
