<svg width="37" height="33" viewBox="0 0 37 33" fill="none" xmlns="http://www.w3.org/2000/svg">
<path d="M0.25 31.9999C0.25 32.4142 0.585786 32.7499 1 32.7499C1.41421 32.7499 1.75 32.4142 1.75 31.9999H0.25ZM4.16007 20.6069L3.89801 19.9042L4.16007 20.6069ZM14.6111 18.4374L14.6052 19.1874L14.6111 18.4374ZM24.803 20.669L25.0407 19.9577L24.803 20.669ZM27.4722 31.9999C27.4722 32.4142 27.808 32.7499 28.2222 32.7499C28.6364 32.7499 28.9722 32.4142 28.9722 31.9999H27.4722ZM24.3333 11.875C23.9191 11.875 23.5833 12.2108 23.5833 12.625C23.5833 13.0392 23.9191 13.375 24.3333 13.375V11.875ZM24.3333 0.25C23.9191 0.25 23.5833 0.585786 23.5833 1C23.5833 1.41421 23.9191 1.75 24.3333 1.75V0.25ZM25.3055 16.7188C24.8913 16.7188 24.5555 17.0545 24.5555 17.4688C24.5555 17.883 24.8913 18.2188 25.3055 18.2188V16.7188ZM34.2197 20.81L34.66 20.2028L34.2197 20.81ZM35.25 32C35.25 32.4142 35.5858 32.75 36 32.75C36.4142 32.75 36.75 32.4142 36.75 32H35.25ZM19.6944 6.8125C19.6944 9.60592 17.4211 11.875 14.6111 11.875V13.375C18.2444 13.375 21.1944 10.4394 21.1944 6.8125H19.6944ZM14.6111 11.875C11.8011 11.875 9.52777 9.60592 9.52777 6.8125H8.02777C8.02777 10.4394 10.9778 13.375 14.6111 13.375V11.875ZM9.52777 6.8125C9.52777 4.01908 11.8011 1.75 14.6111 1.75V0.25C10.9778 0.25 8.02777 3.1856 8.02777 6.8125H9.52777ZM14.6111 1.75C17.4211 1.75 19.6944 4.01908 19.6944 6.8125H21.1944C21.1944 3.1856 18.2444 0.25 14.6111 0.25V1.75ZM1.75 31.9999V25.3329H0.25V31.9999H1.75ZM4.42214 21.3096C7.05023 20.3295 10.5797 19.1558 14.6052 19.1874L14.617 17.6875C10.3047 17.6535 6.56142 18.9109 3.89801 19.9042L4.42214 21.3096ZM14.6052 19.1874C18.5375 19.2184 21.5462 20.3714 24.5653 21.3804L25.0407 19.9577C22.0848 18.9699 18.8347 17.7206 14.617 17.6875L14.6052 19.1874ZM24.5653 21.3804C26.3276 21.9694 27.4722 23.6507 27.4722 25.5485H28.9722C28.9722 23.0528 27.4587 20.7658 25.0407 19.9577L24.5653 21.3804ZM1.75 25.3329C1.75 23.5275 2.78284 21.921 4.42214 21.3096L3.89801 19.9042C1.61461 20.7557 0.25 22.9647 0.25 25.3329H1.75ZM29.4166 6.8125C29.4166 9.60592 27.1433 11.875 24.3333 11.875V13.375C27.9666 13.375 30.9166 10.4394 30.9166 6.8125H29.4166ZM24.3333 1.75C27.1433 1.75 29.4166 4.01908 29.4166 6.8125H30.9166C30.9166 3.1856 27.9666 0.25 24.3333 0.25V1.75ZM25.3055 18.2188C28.7058 18.2188 31.8724 20.0341 33.7794 21.4171L34.66 20.2028C32.6775 18.765 29.1893 16.7188 25.3055 16.7188V18.2188ZM35.25 24.5561V32H36.75V24.5561H35.25ZM33.7794 21.4171C34.7395 22.1134 35.25 23.281 35.25 24.5561H36.75C36.75 22.8967 36.0811 21.2334 34.66 20.2028L33.7794 21.4171ZM27.4722 25.5485V31.9999H28.9722V25.5485H27.4722Z" fill="#292D32"/>
</svg>
