<svg width="64" height="64" viewBox="0 0 64 64" fill="none" xmlns="http://www.w3.org/2000/svg">
<path d="M42.9819 23.8685H46.9194L42.3257 39.6185H38.3882L33.7944 23.8685H37.7319L40.3569 32.8723L42.9819 23.8685ZM14.3694 34.106L16.7319 39.6185H12.7944L10.5632 34.3685H7.54443V39.6185H3.60693V23.8685H12.7944C15.0257 23.8685 16.7319 25.5748 16.7319 27.806V30.431C16.7319 32.006 15.6819 33.4498 14.3694 34.106ZM12.7944 27.806H7.54443V30.431H12.7944V27.806ZM57.4194 34.3685H52.1694V39.6185H48.2319V23.8685H57.4194C59.5982 23.8685 61.3569 25.6273 61.3569 27.806V30.431C61.3569 32.6098 59.5982 34.3685 57.4194 34.3685ZM57.4194 27.806H52.1694V30.431H57.4194V27.806ZM31.1694 23.8685V27.806H23.2944V29.7748H28.5444C29.9882 29.7748 31.1694 30.956 31.1694 32.3998V36.9935C31.1694 38.4373 29.9882 39.6185 28.5444 39.6185H19.3569V35.681H27.2319V33.7123H21.3257C20.2494 33.7123 19.3569 32.8198 19.3569 31.7435V26.4935C19.3569 25.0498 20.5382 23.8685 21.9819 23.8685H31.1694Z" fill="black"/>
</svg>
