<svg width="94" height="94" viewBox="0 0 94 94" fill="none" xmlns="http://www.w3.org/2000/svg">
<path d="M74.4167 11.7501H70.5V3.91675H62.6667V11.7501H31.3333V3.91675H23.5V11.7501H19.5833C15.2358 11.7501 11.7892 15.2751 11.7892 19.5834L11.75 74.4167C11.75 76.4943 12.5753 78.4867 14.0443 79.9557C15.5134 81.4248 17.5058 82.2501 19.5833 82.2501H74.4167C78.725 82.2501 82.25 78.7251 82.25 74.4167V19.5834C82.25 15.2751 78.725 11.7501 74.4167 11.7501ZM74.4167 74.4167H19.5833V35.2501H74.4167V74.4167ZM74.4167 27.4167H19.5833V19.5834H74.4167V27.4167ZM66.5833 47.0001H47V66.5834H66.5833V47.0001Z" fill="black"/>
</svg>
