<svg width="64" height="64" viewBox="0 0 64 64" fill="none" xmlns="http://www.w3.org/2000/svg">
<path d="M3.55556 28.4444H24.8889C25.8319 28.4444 26.7362 28.0698 27.403 27.403C28.0698 26.7362 28.4444 25.8319 28.4444 24.8889V3.55556C28.4444 2.61256 28.0698 1.70819 27.403 1.0414C26.7362 0.374602 25.8319 0 24.8889 0H3.55556C2.61256 0 1.70819 0.374602 1.0414 1.0414C0.374602 1.70819 0 2.61256 0 3.55556V24.8889C0 25.8319 0.374602 26.7362 1.0414 27.403C1.70819 28.0698 2.61256 28.4444 3.55556 28.4444ZM7.11111 7.11111H21.3333V21.3333H7.11111V7.11111ZM60.4444 0H39.1111C38.1681 0 37.2638 0.374602 36.597 1.0414C35.9302 1.70819 35.5556 2.61256 35.5556 3.55556V24.8889C35.5556 25.8319 35.9302 26.7362 36.597 27.403C37.2638 28.0698 38.1681 28.4444 39.1111 28.4444H60.4444C61.3874 28.4444 62.2918 28.0698 62.9586 27.403C63.6254 26.7362 64 25.8319 64 24.8889V3.55556C64 2.61256 63.6254 1.70819 62.9586 1.0414C62.2918 0.374602 61.3874 0 60.4444 0ZM56.8889 21.3333H42.6667V7.11111H56.8889V21.3333ZM24.8889 64C25.8319 64 26.7362 63.6254 27.403 62.9586C28.0698 62.2918 28.4444 61.3874 28.4444 60.4444V39.1111C28.4444 38.1681 28.0698 37.2638 27.403 36.597C26.7362 35.9302 25.8319 35.5556 24.8889 35.5556H3.55556C2.61256 35.5556 1.70819 35.9302 1.0414 36.597C0.374602 37.2638 0 38.1681 0 39.1111V60.4444C0 61.3874 0.374602 62.2918 1.0414 62.9586C1.70819 63.6254 2.61256 64 3.55556 64H24.8889ZM7.11111 42.6667H21.3333V56.8889H7.11111V42.6667ZM53.3333 39.1111H46.2222V46.2222H39.1111V53.3333H46.2222V60.4444H53.3333V53.3333H60.4444V46.2222H53.3333V39.1111Z" fill="black"/>
</svg>
