<svg width="46" height="46" viewBox="0 0 46 46" fill="none" xmlns="http://www.w3.org/2000/svg">
<path d="M31 38.6276C31 39.1647 30.6957 39.694 30.1124 40.1715C29.5291 40.6491 28.6836 41.0609 27.6464 41.3729C26.6092 41.6848 25.4103 41.8878 24.1494 41.965C22.8885 42.0422 21.6021 41.9913 20.3973 41.8165C19.1925 41.6418 18.1042 41.3483 17.2228 40.9604C16.3415 40.5725 15.6926 40.1015 15.3303 39.5866C14.968 39.0717 14.9026 38.5277 15.1398 38" stroke="#292D32" stroke-width="1.5" stroke-linecap="round"/>
<path d="M11.338 21.412C7.84723 13.4629 13.9042 4.58333 22.9999 4.58333C32.0956 4.58333 38.1526 13.4629 34.6618 21.412L29.3264 33.5617C28.2616 35.9863 25.7762 37.5833 22.9999 37.5833C20.2236 37.5833 17.7382 35.9863 16.6735 33.5617L11.338 21.412Z" stroke="#292D32" stroke-width="1.5"/>
<circle cx="22.9998" cy="15.3333" r="3.83333" fill="#292D32"/>
</svg>
