<svg xmlns="http://www.w3.org/2000/svg" width="57" height="41" fill="none" viewBox="0 0 57 41"><path fill="#000" fill-rule="evenodd" d="M3.83772 27.5356L36.6048 34.4341V36.8381C36.6048 37.6063 35.9857 38.2254 35.2175 38.2254H18.5699C17.8018 38.2254 17.1826 37.6063 17.1826 36.8381V34.0385C17.1826 33.2723 16.5615 32.6512 15.7953 32.6512C15.0291 32.6512 14.408 33.2723 14.408 34.0385V36.8381C14.408 39.1386 16.2694 41 18.5699 41H35.2175C37.5181 41 39.3794 39.1386 39.3794 36.8381V35.0182L51.0073 37.4662C53.5949 38.0112 56.0266 36.0359 56.0266 33.3923V4.16195C56.0266 1.52048 53.5942 -0.453977 51.0073 0.0908688L3.8392 10.0211C3.65757 10.0596 3.48082 10.1095 3.30964 10.17V9.06715C3.30964 8.30097 2.68852 7.67985 1.92234 7.67985C1.15615 7.67985 0.535037 8.30097 0.535037 9.06715V14.0365C0.534791 14.0551 0.534668 14.0736 0.534668 14.0922V23.4621C0.534668 23.4807 0.534791 23.4993 0.535037 23.5178V28.4893C0.535037 29.2555 1.15615 29.8766 1.92234 29.8766C2.68852 29.8766 3.30964 29.2555 3.30964 28.4893V27.3872C3.48035 27.4475 3.65661 27.4973 3.83772 27.5356ZM3.30964 23.4922C3.32345 24.1359 3.77847 24.687 4.41085 24.8208L36.6048 31.5986V29.8766C36.6048 29.1104 37.2259 28.4893 37.9921 28.4893C38.7583 28.4893 39.3794 29.1104 39.3794 29.8766V32.1828L51.579 34.7511C52.4414 34.9328 53.2521 34.2742 53.2521 33.3923V4.16193C53.2521 3.28258 52.4412 2.62433 51.579 2.80591L4.41232 12.7359C3.77869 12.87 3.32346 13.4209 3.30964 14.0622V23.4922Z" clip-rule="evenodd"/></svg>