<svg width="60" height="42" viewBox="0 0 60 42" fill="none" xmlns="http://www.w3.org/2000/svg">
<path fill-rule="evenodd" clip-rule="evenodd" d="M55.4994 0C57.9838 0 59.9993 2.01555 59.9993 4.49995V37.4996C59.9993 39.984 57.9838 41.9995 55.4994 41.9995H4.49995C2.01555 41.9995 0 39.984 0 37.4996V4.49995C0 2.01555 2.01555 0 4.49995 0H55.4994ZM53.9393 2.99996H4.49993C3.67237 2.99996 2.99995 3.67238 2.99995 4.49994V37.1523L20.438 19.6298L8.66308 8.60353C8.05839 8.03729 8.02723 7.08806 8.59347 6.48338C9.15971 5.87869 10.1089 5.84752 10.7136 6.41377L29.1381 23.6878C29.6569 24.0502 30.3438 24.0502 30.7193 23.8002L53.9393 2.99996ZM54.1356 38.9995H5.394L22.6288 21.6813L27.2539 26.0123C28.9714 27.2307 31.0324 27.2307 32.5808 26.1459L56.9858 4.29822C56.9947 4.36421 56.9993 4.43155 56.9993 4.49994V37.4996C56.9993 37.5398 56.9977 37.5796 56.9946 37.6191L43.0473 23.6133C42.4628 23.0263 41.5131 23.0243 40.9261 23.6088C40.3391 24.1934 40.3371 25.1431 40.9216 25.7301L54.1356 38.9995Z" fill="black"/>
</svg>
