<svg xmlns="http://www.w3.org/2000/svg" width="90" height="60" fill="none" viewBox="0 0 90 60"><path fill="#000" d="M61.815 29.91L84.8812 9.87V49.7213L61.815 29.91ZM32.0925 33.3037L40.1925 40.335C41.4637 41.415 43.1213 42.0675 44.9325 42.0675H44.9962H44.9925H45.045C46.86 42.0675 48.5175 41.4113 49.8037 40.3237L49.7925 40.3312L57.8925 33.3L82.515 54.4462H7.48125L32.0925 33.3037ZM7.4475 5.11875H82.56L46.4812 36.4538C46.0756 36.7746 45.5735 36.949 45.0562 36.9487H45.0037H45.0075H44.955C44.436 36.9494 43.9321 36.7735 43.5262 36.45L43.53 36.4538L7.4475 5.11875ZM5.11875 9.86625L28.1812 29.9063L5.11875 49.7062V9.86625ZM86.1187 0.7125C85.2187 0.2625 84.1612 0 83.04 0H6.97125C5.88435 0.000259631 4.81239 0.253165 3.84 0.73875L3.88125 0.72C2.71715 1.29417 1.7368 2.18242 1.05095 3.28442C0.365102 4.38642 0.00107756 5.65825 0 6.95625L0 52.6012C0.00198526 54.4485 0.736696 56.2196 2.04293 57.5258C3.34916 58.8321 5.12021 59.5668 6.9675 59.5688H83.0287C84.876 59.5668 86.6471 58.8321 87.9533 57.5258C89.2596 56.2196 89.9943 54.4485 89.9962 52.6012V6.97125V6.95625C89.9962 4.23 88.425 1.8675 86.1375 0.731251L86.0962 0.7125H86.1187Z"/></svg>