<svg width="104" height="105" viewBox="0 0 104 105" fill="none" xmlns="http://www.w3.org/2000/svg">
<path d="M95.3332 45.9375V67.8125C95.3332 83.125 86.6665 89.6875 73.6665 89.6875H30.3332C17.3332 89.6875 8.6665 83.125 8.6665 67.8125V37.1875C8.6665 21.875 17.3332 15.3125 30.3332 15.3125H60.6665" stroke="#292D32" stroke-width="4" stroke-miterlimit="10" stroke-linecap="round" stroke-linejoin="round"/>
<path d="M30.3335 39.375L43.8968 50.3125C48.3602 53.9 55.6835 53.9 60.1468 50.3125L65.2601 46.2" stroke="#292D32" stroke-width="4" stroke-miterlimit="10" stroke-linecap="round" stroke-linejoin="round"/>
<path d="M84.4998 35C90.4829 35 95.3332 30.1031 95.3332 24.0625C95.3332 18.0219 90.4829 13.125 84.4998 13.125C78.5168 13.125 73.6665 18.0219 73.6665 24.0625C73.6665 30.1031 78.5168 35 84.4998 35Z" fill="#F9D1DE" stroke="#292D32" stroke-width="4" stroke-miterlimit="10" stroke-linecap="round" stroke-linejoin="round"/>
</svg>
