<svg width="54" height="54" viewBox="0 0 54 54" fill="none" xmlns="http://www.w3.org/2000/svg">
<path d="M49.3426 15.21L41.7601 45.6526C41.2201 47.9251 39.1951 49.5 36.8551 49.5H7.29005C3.89255 49.5 1.46258 46.1699 2.47508 42.9074L11.9476 12.4876C12.6001 10.3726 14.5576 8.90991 16.7626 8.90991H44.4376C46.5751 8.90991 48.3526 10.2149 49.0951 12.0149C49.5226 12.9824 49.6126 14.085 49.3426 15.21Z" stroke="#292D32" stroke-width="1.5" stroke-miterlimit="10"/>
<path d="M36 49.5H46.755C49.6575 49.5 51.93 47.0475 51.7275 44.145L49.5 13.5" stroke="#292D32" stroke-width="1.5" stroke-miterlimit="10" stroke-linecap="round" stroke-linejoin="round"/>
<path d="M21.7793 14.3551L24.1193 4.63525" stroke="#292D32" stroke-width="1.5" stroke-miterlimit="10" stroke-linecap="round" stroke-linejoin="round"/>
<path d="M36.8545 14.3775L38.9695 4.61255" stroke="#292D32" stroke-width="1.5" stroke-miterlimit="10" stroke-linecap="round" stroke-linejoin="round"/>
<path d="M17.3252 27H35.3252" stroke="#292D32" stroke-width="1.5" stroke-miterlimit="10" stroke-linecap="round" stroke-linejoin="round"/>
<path d="M15.0752 36H33.0752" stroke="#292D32" stroke-width="1.5" stroke-miterlimit="10" stroke-linecap="round" stroke-linejoin="round"/>
</svg>
