<svg width="55" height="55" viewBox="0 0 55 55" fill="none" xmlns="http://www.w3.org/2000/svg">
<path d="M50.4163 18.3333V29.7916C50.4163 38.9583 45.833 43.5416 36.6663 43.5416H35.5205C34.8101 43.5416 34.1226 43.8853 33.6872 44.4583L30.2497 49.0416C28.7372 51.0583 26.2622 51.0583 24.7497 49.0416L21.3122 44.4583C20.9455 43.9541 20.0976 43.5416 19.4788 43.5416H18.333C9.16634 43.5416 4.58301 41.2499 4.58301 29.7916V18.3333C4.58301 9.16659 9.16634 4.58325 18.333 4.58325H27.4997" stroke="#292D32" stroke-width="1.5" stroke-miterlimit="10" stroke-linecap="round" stroke-linejoin="round"/>
<path d="M34.8331 10.5875C34.0768 8.31879 34.9706 5.52296 37.4456 4.74379C38.7289 4.35421 40.3331 4.67504 41.2497 5.88962C42.1206 4.62921 43.7706 4.35421 45.0539 4.74379C47.5289 5.50004 48.4226 8.31879 47.6664 10.5875C46.4976 14.1855 42.3956 16.0417 41.2497 16.0417C40.1039 16.0417 36.0476 14.2084 34.8331 10.5875Z" stroke="#292D32" stroke-width="1.5" stroke-linecap="round" stroke-linejoin="round"/>
<path d="M36.6586 25.2083H36.6792" stroke="#292D32" stroke-width="2" stroke-linecap="round" stroke-linejoin="round"/>
<path d="M27.4897 25.2083H27.5103" stroke="#292D32" stroke-width="2" stroke-linecap="round" stroke-linejoin="round"/>
<path d="M18.3207 25.2083H18.3413" stroke="#292D32" stroke-width="2" stroke-linecap="round" stroke-linejoin="round"/>
</svg>
