<svg width="90" height="91" viewBox="0 0 90 91" fill="none" xmlns="http://www.w3.org/2000/svg">
<path d="M67.425 40.9121V56.0788C67.425 57.0646 67.3875 58.0125 67.275 58.9225C66.4125 69.16 60.45 74.2408 49.4625 74.2408H47.9625C47.025 74.2408 46.125 74.6958 45.5625 75.4541L41.0625 81.5208C39.075 84.2129 35.85 84.2129 33.8625 81.5208L29.3624 75.4541C28.8749 74.8096 27.7875 74.2408 26.9625 74.2408H25.4625C13.5 74.2408 7.5 71.2455 7.5 56.0788V40.9121C7.5 29.8025 12.5625 23.7738 22.65 22.9017C23.55 22.7879 24.4875 22.75 25.4625 22.75H49.4625C61.425 22.75 67.425 28.8167 67.425 40.9121Z" stroke="#292D32" stroke-width="4" stroke-miterlimit="10" stroke-linecap="round" stroke-linejoin="round"/>
<path d="M82.4249 25.7454V40.912C82.4249 52.0595 77.3624 58.0504 67.2749 58.9224C67.3874 58.0124 67.4249 57.0645 67.4249 56.0787V40.912C67.4249 28.8166 61.4249 22.7499 49.4624 22.7499H25.4624C24.4874 22.7499 23.5499 22.7879 22.6499 22.9016C23.5124 12.702 29.4749 7.58325 40.4624 7.58325H64.4624C76.4249 7.58325 82.4249 13.6499 82.4249 25.7454Z" fill="#F9D1DE" stroke="#292D32" stroke-width="4" stroke-miterlimit="10" stroke-linecap="round" stroke-linejoin="round"/>
<path d="M50.6081 50.2396H50.6419" stroke="#292D32" stroke-width="4" stroke-linecap="round" stroke-linejoin="round"/>
<path d="M37.4831 50.2396H37.5169" stroke="#292D32" stroke-width="4" stroke-linecap="round" stroke-linejoin="round"/>
<path d="M24.3581 50.2396H24.3919" stroke="#292D32" stroke-width="4" stroke-linecap="round" stroke-linejoin="round"/>
</svg>
