<svg width="46" height="46" viewBox="0 0 46 46" fill="none" xmlns="http://www.w3.org/2000/svg">
<path d="M11.2768 29.9888L10.262 30.1834C8.74326 30.4746 7.27601 29.4795 6.98479 27.9608L4.36055 14.275C4.06933 12.7563 5.06433 11.2891 6.58306 10.9979C9.75688 10.3893 15.0341 9.37738 18.8922 8.63759C22.781 7.89191 28.1321 6.97712 31.3112 6.44293C32.8075 6.19151 34.2258 7.18193 34.5115 8.67202C34.7248 9.78442 34.982 11.1256 35.2375 12.4584" stroke="#292D32" stroke-width="1.5" stroke-linecap="round"/>
<path d="M11.5 18.7834V32.5834C11.5 34.7004 13.2162 36.4167 15.3333 36.4167H15.7983C16.6 36.4167 17.25 37.0667 17.25 37.8684C17.25 39.449 17.3834 41.7872 18.9633 41.7429C20.0351 41.7129 20.4183 40.4026 21.0012 39.5026L22.1723 37.6945C22.6884 36.8977 23.5731 36.4167 24.5224 36.4167H36.8C39.7639 36.4167 42.1667 34.0144 42.1667 31.0504V18.911C42.1667 16.0129 40.2723 13.4866 37.375 13.4167C34.2532 13.3413 29.9006 13.4167 26.8333 13.4167H16.8659C13.9019 13.4167 11.5 15.8194 11.5 18.7834Z" stroke="#292D32" stroke-width="1.5" stroke-linecap="round"/>
<ellipse cx="19.1667" cy="24.9167" rx="1.91667" ry="1.91667" fill="#292D32"/>
<circle cx="26.8332" cy="24.9167" r="1.91667" fill="#292D32"/>
<ellipse cx="34.4999" cy="24.9167" rx="1.91667" ry="1.91667" fill="#292D32"/>
</svg>
