<svg width="86" height="81" viewBox="0 0 86 81" fill="none" xmlns="http://www.w3.org/2000/svg">
<path d="M14.3942 58.6594C14.9522 59.2199 15.3797 59.8966 15.6463 60.6414C15.913 61.3862 16.0122 62.1807 15.9369 62.9683C15.5591 66.6132 14.8429 70.215 13.7976 73.727C21.2957 71.9894 25.8753 69.9776 27.9554 68.9232C29.1352 68.3252 30.4939 68.1834 31.7716 68.5251C35.4343 69.5024 39.2094 69.9943 43 69.9883C64.4785 69.9883 80.625 54.8885 80.625 37.7122C80.625 20.5412 64.4785 5.436 43 5.436C21.5215 5.436 5.375 20.5412 5.375 37.7122C5.375 45.6091 8.69137 52.9358 14.3942 58.6594ZM11.7444 79.6658C10.4709 79.9185 9.19323 80.1498 7.912 80.3597C6.837 80.5319 6.02 79.413 6.44462 78.4124C6.92188 77.286 7.35932 76.143 7.75612 74.9858L7.77225 74.932C9.10525 71.0588 10.191 66.6047 10.5887 62.4572C3.99363 55.8406 0 47.1798 0 37.7122C0 16.9156 19.2532 0.0566406 43 0.0566406C66.7467 0.0566406 86 16.9156 86 37.7122C86 58.5088 66.7467 75.3677 43 75.3677C38.7411 75.3734 34.4999 74.82 30.3849 73.7216C27.5899 75.1364 21.5752 77.7131 11.7444 79.6658Z" fill="#F9D1DE"/>
</svg>
