<svg width="54" height="54" viewBox="0 0 54 54" fill="none" xmlns="http://www.w3.org/2000/svg">
<path d="M49.5 22.5V29.25C49.5 38.25 45 42.75 36 42.75H34.875C34.1775 42.75 33.5025 43.0875 33.075 43.65L29.7 48.15C28.215 50.13 25.785 50.13 24.3 48.15L20.925 43.65C20.565 43.155 19.7325 42.75 19.125 42.75H18C9 42.75 4.5 40.5 4.5 29.25V18C4.5 9 9 4.5 18 4.5H31.5" stroke="#292D32" stroke-width="2" stroke-miterlimit="10" stroke-linecap="round" stroke-linejoin="round"/>
<path d="M43.875 15.75C46.9816 15.75 49.5 13.2316 49.5 10.125C49.5 7.0184 46.9816 4.5 43.875 4.5C40.7684 4.5 38.25 7.0184 38.25 10.125C38.25 13.2316 40.7684 15.75 43.875 15.75Z" stroke="#292D32" stroke-width="2" stroke-linecap="round" stroke-linejoin="round"/>
<path d="M35.992 24.75H36.0122" stroke="#292D32" stroke-width="2" stroke-linecap="round" stroke-linejoin="round"/>
<path d="M26.9896 24.75H27.0098" stroke="#292D32" stroke-width="2" stroke-linecap="round" stroke-linejoin="round"/>
<path d="M17.9876 24.75H18.0079" stroke="#292D32" stroke-width="2" stroke-linecap="round" stroke-linejoin="round"/>
</svg>
