<svg width="54" height="54" viewBox="0 0 54 54" fill="none" xmlns="http://www.w3.org/2000/svg">
<path d="M18 4.5V11.25" stroke="#292D32" stroke-width="1.5" stroke-miterlimit="10" stroke-linecap="round" stroke-linejoin="round"/>
<path d="M36 4.5V11.25" stroke="#292D32" stroke-width="1.5" stroke-miterlimit="10" stroke-linecap="round" stroke-linejoin="round"/>
<path d="M47.25 19.125V30.6675C45.2475 29.07 42.705 28.125 39.9375 28.125C37.17 28.125 34.5825 29.0924 32.5575 30.7349C29.835 32.8724 28.125 36.225 28.125 39.9375C28.125 42.1425 28.755 44.2575 29.835 46.0125C30.6675 47.385 31.7475 48.5775 33.03 49.5H18C10.125 49.5 6.75 45 6.75 38.25V19.125C6.75 12.375 10.125 7.875 18 7.875H36C43.875 7.875 47.25 12.375 47.25 19.125Z" stroke="#292D32" stroke-width="1.5" stroke-miterlimit="10" stroke-linecap="round" stroke-linejoin="round"/>
<path d="M15.75 24.75H29.25" stroke="#292D32" stroke-width="1.5" stroke-miterlimit="10" stroke-linecap="round" stroke-linejoin="round"/>
<path d="M15.75 36H21.645" stroke="#292D32" stroke-width="1.5" stroke-miterlimit="10" stroke-linecap="round" stroke-linejoin="round"/>
<path d="M51.75 39.9375C51.75 42.1425 51.12 44.2575 50.04 46.0125C49.41 47.0925 48.6225 48.0375 47.7 48.8025C45.63 50.6475 42.93 51.75 39.9375 51.75C37.35 51.75 34.965 50.9175 33.03 49.5C31.7475 48.5775 30.6675 47.385 29.835 46.0125C28.755 44.2575 28.125 42.1425 28.125 39.9375C28.125 36.225 29.835 32.8724 32.5575 30.7349C34.5825 29.0924 37.17 28.125 39.9375 28.125C42.705 28.125 45.2475 29.07 47.25 30.6675C49.995 32.8275 51.75 36.18 51.75 39.9375Z" stroke="#292D32" stroke-width="1.5" stroke-miterlimit="10" stroke-linecap="round" stroke-linejoin="round"/>
<path d="M39.9375 45.5625C39.9375 42.4575 42.4575 39.9375 45.5625 39.9375C42.4575 39.9375 39.9375 37.4175 39.9375 34.3125C39.9375 37.4175 37.4175 39.9375 34.3125 39.9375C37.4175 39.9375 39.9375 42.4575 39.9375 45.5625Z" stroke="#292D32" stroke-width="1.5" stroke-linecap="round" stroke-linejoin="round"/>
</svg>
