<svg width="43" height="43" viewBox="0 0 43 43" fill="none" xmlns="http://www.w3.org/2000/svg">
<path d="M32.2501 12.8283C32.1426 12.8103 32.0171 12.8103 31.9096 12.8283C29.4371 12.7387 27.4663 10.7141 27.4663 8.20576C27.4663 5.64367 29.5267 3.58325 32.0888 3.58325C34.6509 3.58325 36.7113 5.66159 36.7113 8.20576C36.6934 10.7141 34.7226 12.7387 32.2501 12.8283Z" stroke="#292D32" stroke-width="1.5" stroke-linecap="round" stroke-linejoin="round"/>
<path d="M30.4043 25.8716C32.8589 26.2837 35.5643 25.8537 37.4635 24.5816C39.9898 22.8975 39.9898 20.1383 37.4635 18.4541C35.5464 17.182 32.8052 16.752 30.3506 17.182" stroke="#292D32" stroke-width="1.5" stroke-linecap="round" stroke-linejoin="round"/>
<path d="M10.6961 12.8283C10.8036 12.8103 10.929 12.8103 11.0365 12.8283C13.509 12.7387 15.4799 10.7141 15.4799 8.20576C15.4799 5.64367 13.4195 3.58325 10.8574 3.58325C8.29528 3.58325 6.23486 5.66159 6.23486 8.20576C6.25278 10.7141 8.22362 12.7387 10.6961 12.8283Z" stroke="#292D32" stroke-width="1.5" stroke-linecap="round" stroke-linejoin="round"/>
<path d="M12.5417 25.8716C10.0872 26.2837 7.38174 25.8537 5.48258 24.5816C2.95633 22.8975 2.95633 20.1383 5.48258 18.4541C7.39966 17.182 10.1409 16.752 12.5955 17.182" stroke="#292D32" stroke-width="1.5" stroke-linecap="round" stroke-linejoin="round"/>
<path d="M21.5001 26.212C21.3926 26.1941 21.2671 26.1941 21.1596 26.212C18.6871 26.1225 16.7163 24.0979 16.7163 21.5895C16.7163 19.0275 18.7767 16.967 21.3388 16.967C23.9009 16.967 25.9613 19.0454 25.9613 21.5895C25.9434 24.0979 23.9726 26.1404 21.5001 26.212Z" stroke="#292D32" stroke-width="1.5" stroke-linecap="round" stroke-linejoin="round"/>
<path d="M16.2863 31.8558C13.76 33.5399 13.76 36.2991 16.2863 37.9833C19.153 39.9003 23.8471 39.9003 26.7138 37.9833C29.24 36.2991 29.24 33.5399 26.7138 31.8558C23.865 29.9566 19.153 29.9566 16.2863 31.8558Z" stroke="#292D32" stroke-width="1.5" stroke-linecap="round" stroke-linejoin="round"/>
</svg>
