<svg width="22" height="20" viewBox="0 0 22 20" fill="none" xmlns="http://www.w3.org/2000/svg">
<g clip-path="url(#clip0)">
<path d="M11.1027 19.9995C16.9017 19.9995 21.6027 15.5224 21.6027 9.99951C21.6027 4.47666 16.9017 -0.000488281 11.1027 -0.000488281C5.30367 -0.000488281 0.602661 4.47666 0.602661 9.99951C0.602661 15.5224 5.30367 19.9995 11.1027 19.9995Z" fill="white"/>
<path d="M11.1027 -0.000488281C5.3039 -0.000488281 0.602661 4.47688 0.602661 9.99951C0.602661 14.2382 3.36809 17.8596 7.27427 19.3164C7.1792 18.5263 7.10143 17.3082 7.30883 16.444C7.49896 15.6621 8.53599 11.4728 8.53599 11.4728C8.53599 11.4728 8.22488 10.8719 8.22488 9.99128C8.22488 8.60034 9.0718 7.5633 10.1261 7.5633C11.0249 7.5633 11.457 8.20527 11.457 8.97071C11.457 9.82667 10.8866 11.1106 10.5841 12.304C10.3335 13.2999 11.1113 14.1147 12.1397 14.1147C14.0064 14.1147 15.4409 12.2382 15.4409 9.53861C15.4409 7.14354 13.6348 5.47276 11.0508 5.47276C8.06069 5.47276 6.30636 7.60445 6.30636 9.81021C6.30636 10.6662 6.65204 11.588 7.08414 12.09C7.17056 12.1888 7.1792 12.2793 7.15328 12.3781C7.0755 12.6909 6.89402 13.374 6.85945 13.5139C6.81624 13.695 6.7039 13.7361 6.50513 13.6456C5.19155 13.0612 4.37056 11.2423 4.37056 9.76906C4.37056 6.6168 6.77303 3.71968 11.3101 3.71968C14.9483 3.71968 17.7829 6.18881 17.7829 9.49745C17.7829 12.946 15.5014 15.7197 12.3385 15.7197C11.2755 15.7197 10.273 15.1929 9.93599 14.5674C9.93599 14.5674 9.40883 16.4769 9.2792 16.946C9.04587 17.8184 8.40636 18.9049 7.97427 19.5715C8.95945 19.8596 9.99649 20.016 11.0854 20.016C16.8841 20.016 21.5854 15.5386 21.5854 10.016C21.6027 4.47688 16.9014 -0.000488281 11.1027 -0.000488281Z" fill="#E60019"/>
</g>
<defs>
<clipPath id="clip0">
<rect width="21" height="20" fill="white" transform="translate(0.602661 -0.000488281)"/>
</clipPath>
</defs>
</svg>
