<svg width="75" height="75" viewBox="0 0 75 75" fill="none" xmlns="http://www.w3.org/2000/svg">
<path d="M27.9519 59.2126C25.9259 65.2901 21.0981 69.755 13.9894 72.1243C10.8009 73.1786 7.47538 73.7611 4.11836 73.8532C3.33017 73.8532 2.57427 73.5401 2.01693 72.9827C1.4596 72.4254 1.14649 71.6695 1.14649 70.8813C1.23856 67.5243 1.82102 64.1987 2.87538 61.0102C5.24469 53.9015 9.70954 49.0733 15.787 47.0476C16.1572 46.9242 16.5482 46.8749 16.9375 46.9026C17.3268 46.9302 17.7068 47.0343 18.0559 47.2088C18.4049 47.3834 18.7162 47.6249 18.9719 47.9198C19.2277 48.2146 19.4228 48.5569 19.5462 48.9272C19.6696 49.2974 19.7189 49.6883 19.6913 50.0776C19.6636 50.4669 19.5596 50.847 19.385 51.196C19.2105 51.5451 18.9689 51.8564 18.6741 52.1121C18.3793 52.3678 18.0369 52.563 17.6667 52.6864C10.3645 55.1204 8.10251 63.0471 7.40301 67.597C11.9507 66.8975 19.8789 64.6359 22.3132 57.3329C22.4366 56.9627 22.6318 56.6203 22.8875 56.3255C23.1432 56.0306 23.4545 55.789 23.8036 55.6145C24.1527 55.4399 24.5328 55.3358 24.9221 55.3082C25.3114 55.2805 25.7023 55.3298 26.0726 55.4532C26.4429 55.5766 26.7852 55.7718 27.0801 56.0275C27.3749 56.2832 27.6165 56.5945 27.7911 56.9436C27.9656 57.2927 28.0697 57.6728 28.0974 58.0621C28.125 58.4514 28.0757 58.8424 27.9523 59.2126H27.9519ZM65.0597 30.9538L61.7279 34.2864V57.0417C61.73 57.8225 61.5772 58.596 61.2784 59.3173C60.9796 60.0387 60.5407 60.6936 59.9871 61.2443L47.9719 73.2588C47.2112 74.0196 46.2582 74.5597 45.2147 74.8214C44.1711 75.0832 43.0761 75.0567 42.0464 74.745C41.0167 74.4332 40.0909 73.8478 39.3678 73.0512C38.6446 72.2545 38.1513 71.2766 37.9404 70.2216L35.0034 55.5353L19.4643 39.9961L4.77811 37.0588C3.72323 36.8478 2.74538 36.3545 1.94884 35.6315C1.15229 34.9084 0.56691 33.9828 0.255118 32.9532C-0.0566737 31.9236 -0.0831877 30.8286 0.178403 29.7852C0.439994 28.7417 0.979881 27.7887 1.7405 27.028L13.7546 15.0131C14.3054 14.4595 14.9604 14.0206 15.6818 13.7219C16.4032 13.4231 17.1767 13.2703 17.9576 13.2723H40.7131L44.0453 9.93972C54.6656 -0.679529 65.5627 -0.371568 69.7556 0.254011C71.0141 0.436699 72.1799 1.0212 73.0791 1.92039C73.9784 2.81958 74.563 3.9853 74.7458 5.24379C75.3717 9.43636 75.68 20.3338 65.0601 30.9542L65.0597 30.9538ZM5.94345 31.2302L19.9528 34.032L34.7694 19.216H17.9579L5.94345 31.2302ZM25.1331 37.2583L37.7413 49.8668L60.8568 26.7512C63.758 23.8499 70.3459 16.0324 68.867 6.1216C58.9633 4.65313 51.1492 11.2418 48.2483 14.1427L25.1331 37.2583ZM55.7842 40.2302L40.9676 55.0468L43.7697 69.0562L55.7838 57.0417L55.7842 40.2302Z" fill="black"/>
</svg>
