<svg width="93" height="92" viewBox="0 0 93 92" fill="none" xmlns="http://www.w3.org/2000/svg">
<path d="M73.8529 58.6273V27.7803C73.8529 16.4183 73.8529 7.21558 58.2226 7.21558H34.7772C19.147 7.21558 19.147 16.4183 19.147 27.7803V58.6273" fill="#F9D1DE"/>
<path d="M73.8529 58.6273V27.7803C73.8529 16.4183 73.8529 7.21558 58.2226 7.21558H34.7772C19.147 7.21558 19.147 16.4183 19.147 27.7803V58.6273" stroke="#292D32" stroke-width="4" stroke-miterlimit="10" stroke-linecap="round" stroke-linejoin="round"/>
<path d="M27.125 46C11.625 46 11.625 52.8617 11.625 61.3333V65.1667C11.625 75.7467 11.625 84.3333 31 84.3333H62C77.5 84.3333 81.375 75.7467 81.375 65.1667V61.3333C81.375 52.8617 81.375 46 65.875 46C62 46 60.915 46.805 58.9 48.3L54.9475 52.44C50.375 57.27 42.625 57.27 38.0138 52.44L34.1 48.3C32.085 46.805 31 46 27.125 46Z" fill="white" stroke="#292D32" stroke-width="4" stroke-miterlimit="10" stroke-linecap="round" stroke-linejoin="round"/>
<path d="M40.8813 35.3816H53.7851" stroke="#292D32" stroke-width="4" stroke-linecap="round" stroke-linejoin="round"/>
<path d="M37.665 23.8816H57.04" stroke="#292D32" stroke-width="4" stroke-linecap="round" stroke-linejoin="round"/>
</svg>
