<svg xmlns="http://www.w3.org/2000/svg" width="101" height="101" fill="none" viewBox="0 0 101 101"><path fill="#F9D1DE" d="M24.1979 12.625C21.1286 12.625 18.185 13.8443 16.0146 16.0146C13.8443 18.185 12.625 21.1286 12.625 24.1979V76.8021C12.625 79.8714 13.8443 82.815 16.0146 84.9854C18.185 87.1557 21.1286 88.375 24.1979 88.375H50.5926C49.3313 86.4076 48.3285 84.286 47.6089 82.0625H24.1979C21.2942 82.0625 18.9375 79.7058 18.9375 76.8021V24.1979C18.9375 21.2942 21.2942 18.9375 24.1979 18.9375H76.8021C79.7058 18.9375 82.0625 21.2942 82.0625 24.1979V47.6089C84.286 48.3285 86.4076 49.3313 88.375 50.5926V24.1979C88.375 21.1286 87.1557 18.185 84.9854 16.0146C82.815 13.8443 79.8714 12.625 76.8021 12.625H24.1979Z"/><path fill="#F9D1DE" d="M75.569 46.3588C75.7498 45.8809 75.8116 45.3662 75.7493 44.8591C75.687 44.352 75.5023 43.8676 75.2112 43.4477C74.9201 43.0278 74.5313 42.685 74.0782 42.4487C73.6252 42.2125 73.1215 42.0899 72.6105 42.0916H51.552C50.7149 42.0916 49.9121 42.4241 49.3202 43.016C48.7283 43.6079 48.3958 44.4107 48.3958 45.2478C48.3958 46.0849 48.7283 46.8877 49.3202 47.4796C49.9121 48.0715 50.7149 48.4041 51.552 48.4041H63.0913C67.0328 46.7542 71.3069 46.0536 75.569 46.3588Z"/><path fill="#F9D1DE" d="M34.7188 35.7791C32.2075 35.7791 29.7991 36.7767 28.0233 38.5524C26.2476 40.3281 25.25 42.7365 25.25 45.2478C25.25 47.7591 26.2476 50.1675 28.0233 51.9432C29.7991 53.719 32.2075 54.7166 34.7188 54.7166C37.23 54.7166 39.6384 53.719 41.4142 51.9432C43.1899 50.1675 44.1875 47.7591 44.1875 45.2478C44.1875 42.7365 43.1899 40.3281 41.4142 38.5524C39.6384 36.7767 37.23 35.7791 34.7188 35.7791ZM31.5625 45.2478C31.5625 44.4107 31.895 43.6079 32.4869 43.016C33.0789 42.4241 33.8817 42.0916 34.7188 42.0916C35.5558 42.0916 36.3586 42.4241 36.9506 43.016C37.5425 43.6079 37.875 44.4107 37.875 45.2478C37.875 46.0849 37.5425 46.8877 36.9506 47.4796C36.3586 48.0715 35.5558 48.4041 34.7188 48.4041C33.8817 48.4041 33.0789 48.0715 32.4869 47.4796C31.895 46.8877 31.5625 46.0849 31.5625 45.2478Z"/><path fill="#F9D1DE" d="M25.25 68.3855C25.25 67.142 25.4949 65.9108 25.9708 64.762C26.4466 63.6132 27.1441 62.5693 28.0233 61.6901C28.9026 60.8108 29.9464 60.1134 31.0952 59.6375C32.244 59.1617 33.4753 58.9167 34.7188 58.9167C35.9622 58.9167 37.1935 59.1617 38.3423 59.6375C39.4911 60.1134 40.5349 60.8108 41.4142 61.6901C42.2934 62.5693 42.9909 63.6132 43.4667 64.762C43.9426 65.9108 44.1875 67.142 44.1875 68.3855C44.1875 70.8968 43.1899 73.3052 41.4142 75.0809C39.6384 76.8567 37.23 77.8543 34.7188 77.8543C32.2075 77.8543 29.7991 76.8567 28.0233 75.0809C26.2476 73.3052 25.25 70.8968 25.25 68.3855ZM34.7188 65.2292C33.8817 65.2292 33.0789 65.5618 32.4869 66.1537C31.895 66.7456 31.5625 67.5484 31.5625 68.3855C31.5625 69.2226 31.895 70.0254 32.4869 70.6173C33.0789 71.2092 33.8817 71.5417 34.7188 71.5417C35.5558 71.5417 36.3586 71.2092 36.9506 70.6173C37.5425 70.0254 37.875 69.2226 37.875 68.3855C37.875 67.5484 37.5425 66.7456 36.9506 66.1537C36.3586 65.5618 35.5558 65.2292 34.7188 65.2292Z"/><path fill="#F9D1DE" d="M72.6106 31.5625H28.4231C27.586 31.5625 26.7832 31.23 26.1913 30.6381C25.5994 30.0461 25.2668 29.2433 25.2668 28.4062C25.2668 27.5692 25.5994 26.7664 26.1913 26.1744C26.7832 25.5825 27.586 25.25 28.4231 25.25H72.6106C73.4477 25.25 74.2505 25.5825 74.8424 26.1744C75.4343 26.7664 75.7668 27.5692 75.7668 28.4062C75.7668 29.2433 75.4343 30.0461 74.8424 30.6381C74.2505 31.23 73.4477 31.5625 72.6106 31.5625Z"/><path fill="#F9D1DE" d="M96.7917 73.6458C96.7917 67.5072 94.3531 61.6199 90.0124 57.2793C85.6717 52.9386 79.7845 50.5 73.6458 50.5C67.5072 50.5 61.6199 52.9386 57.2793 57.2793C52.9386 61.6199 50.5 67.5072 50.5 73.6458C50.5 79.7845 52.9386 85.6717 57.2793 90.0124C61.6199 94.3531 67.5072 96.7917 73.6458 96.7917C79.7845 96.7917 85.6717 94.3531 90.0124 90.0124C94.3531 85.6717 96.7917 79.7845 96.7917 73.6458ZM75.7542 86.2835C75.7542 86.8415 75.5325 87.3767 75.1379 87.7713C74.7433 88.1659 74.2081 88.3876 73.65 88.3876C73.092 88.3876 72.5568 88.1659 72.1622 87.7713C71.7676 87.3767 71.5459 86.8415 71.5459 86.2835V75.75H61.004C60.4459 75.75 59.9107 75.5283 59.5161 75.1337C59.1215 74.7391 58.8998 74.2039 58.8998 73.6458C58.8998 73.0878 59.1215 72.5526 59.5161 72.158C59.9107 71.7633 60.4459 71.5417 61.004 71.5417H71.5417V61.0208C71.5417 60.4628 71.7633 59.9276 72.158 59.533C72.5526 59.1384 73.0878 58.9167 73.6458 58.9167C74.2039 58.9167 74.7391 59.1384 75.1337 59.533C75.5283 59.9276 75.75 60.4628 75.75 61.0208V71.5417H86.2835C86.8415 71.5417 87.3767 71.7633 87.7713 72.158C88.1659 72.5526 88.3876 73.0878 88.3876 73.6458C88.3876 74.2039 88.1659 74.7391 87.7713 75.1337C87.3767 75.5283 86.8415 75.75 86.2835 75.75H75.7542V86.2835Z"/></svg>