<svg width="90" height="91" viewBox="0 0 90 91" fill="none" xmlns="http://www.w3.org/2000/svg">
<path d="M37.5 64.2689H23.2875C10.65 64.2689 7.5 61.0838 7.5 48.3059V25.5559C7.5 12.778 10.65 9.59302 23.2875 9.59302H62.775C75.4125 9.59302 78.5625 12.778 78.5625 25.5559" stroke="#292D32" stroke-width="4" stroke-linecap="round" stroke-linejoin="round"/>
<path d="M37.5 81.4069V64.2686" stroke="#292D32" stroke-width="4" stroke-linecap="round" stroke-linejoin="round"/>
<path d="M7.5 49.1021H37.5" stroke="#292D32" stroke-width="4" stroke-linecap="round" stroke-linejoin="round"/>
<path d="M25.2749 81.407H37.4999" stroke="#292D32" stroke-width="4" stroke-linecap="round" stroke-linejoin="round"/>
<path d="M82.5 48.5336V70.184C82.5 79.1703 80.2875 81.4074 71.4 81.4074H58.0875C49.2 81.4074 46.9875 79.1703 46.9875 70.184V48.5336C46.9875 39.5474 49.2 37.3103 58.0875 37.3103H71.4C80.2875 37.3103 82.5 39.5474 82.5 48.5336Z" fill="#F9D1DE" stroke="#292D32" stroke-width="4" stroke-linecap="round" stroke-linejoin="round"/>
<path d="M64.6669 69.1978H64.7006" stroke="#292D32" stroke-width="4" stroke-linecap="round" stroke-linejoin="round"/>
</svg>
