<svg width="111" height="111" viewBox="0 0 111 111" fill="none" xmlns="http://www.w3.org/2000/svg">
<path d="M83.25 18.5H27.75C25.2967 18.5 22.944 19.4746 21.2093 21.2093C19.4746 22.944 18.5 25.2967 18.5 27.75V83.25C18.5 85.7033 19.4746 88.056 21.2093 89.7907C22.944 91.5254 25.2967 92.5 27.75 92.5H83.25C85.7033 92.5 88.056 91.5254 89.7907 89.7907C91.5254 88.056 92.5 85.7033 92.5 83.25V27.75C92.5 25.2967 91.5254 22.944 89.7907 21.2093C88.056 19.4746 85.7033 18.5 83.25 18.5ZM63.125 83.25H23.75V50.875H63.125V83.25ZM86.25 83.25H69.375V50.875H86.25V83.25ZM86.25 41.625H47H23.75V27.75H86.25V41.625Z" fill="#F9D1DE"/>
</svg>
