<svg width="54" height="54" viewBox="0 0 54 54" fill="none" xmlns="http://www.w3.org/2000/svg">
<path d="M49.5 23.625V34.875C49.5 42.75 45 46.125 38.25 46.125H15.75C9 46.125 4.5 42.75 4.5 34.875V19.125C4.5 11.25 9 7.875 15.75 7.875H31.5" stroke="#292D32" stroke-width="1.5" stroke-miterlimit="10" stroke-linecap="round" stroke-linejoin="round"/>
<path d="M15.75 20.25L22.7925 25.875C25.11 27.72 28.9125 27.72 31.23 25.875L33.885 23.76" stroke="#292D32" stroke-width="1.5" stroke-miterlimit="10" stroke-linecap="round" stroke-linejoin="round"/>
<path d="M43.875 18C46.9816 18 49.5 15.4816 49.5 12.375C49.5 9.2684 46.9816 6.75 43.875 6.75C40.7684 6.75 38.25 9.2684 38.25 12.375C38.25 15.4816 40.7684 18 43.875 18Z" stroke="#292D32" stroke-width="1.5" stroke-miterlimit="10" stroke-linecap="round" stroke-linejoin="round"/>
</svg>
