<svg width="40" height="40" viewBox="0 0 40 40" fill="none" xmlns="http://www.w3.org/2000/svg">
<path d="M20 34.1667H11.6667C6.66667 34.1667 3.33334 31.6667 3.33334 25.8333V14.1667C3.33334 8.33334 6.66667 5.83334 11.6667 5.83334H28.3333C33.3333 5.83334 36.6667 8.33334 36.6667 14.1667V19.1667" stroke="#292D32" stroke-width="1.5" stroke-miterlimit="10" stroke-linecap="round" stroke-linejoin="round"/>
<path d="M28.3333 15L23.1167 19.1667C21.4 20.5333 18.5833 20.5333 16.8667 19.1667L11.6667 15" stroke="#292D32" stroke-width="1.5" stroke-miterlimit="10" stroke-linecap="round" stroke-linejoin="round"/>
<path d="M32.0167 24.6167L26.1167 30.5167C25.8834 30.75 25.6667 31.1834 25.6167 31.5L25.3 33.75C25.1833 34.5667 25.75 35.1334 26.5667 35.0167L28.8167 34.7001C29.1334 34.6501 29.5834 34.4334 29.8 34.2L35.7 28.3001C36.7167 27.2834 37.2 26.1001 35.7 24.6001C34.2167 23.1167 33.0333 23.6 32.0167 24.6167Z" stroke="#292D32" stroke-width="1.5" stroke-miterlimit="10" stroke-linecap="round" stroke-linejoin="round"/>
<path d="M31.1667 25.4667C31.6667 27.2667 33.0667 28.6667 34.8667 29.1667" stroke="#292D32" stroke-width="1.5" stroke-miterlimit="10" stroke-linecap="round" stroke-linejoin="round"/>
</svg>
