<svg width="22" height="20" viewBox="0 0 22 20" fill="none" xmlns="http://www.w3.org/2000/svg">
<path d="M20.1127 14.7324C16.8607 13.2327 16.3424 10.9172 16.3193 10.7455C16.2914 10.5374 16.2598 10.3738 16.5007 10.1622C16.733 9.95778 17.7637 9.35002 18.0497 9.15988C18.5224 8.84501 18.7305 8.53066 18.5771 8.14423C18.4698 7.8769 18.2085 7.77621 17.9332 7.77621C17.8464 7.77646 17.7599 7.78571 17.6752 7.80381C17.1558 7.91115 16.6514 8.15905 16.3596 8.22601C16.3245 8.23463 16.2885 8.23926 16.2523 8.23982C16.0967 8.23982 16.0376 8.17388 16.0527 7.99549C16.0891 7.4547 16.1664 6.39918 16.0768 5.41318C15.9539 4.0566 15.4947 3.38444 14.9501 2.78998C14.6866 2.50169 13.4633 1.26318 11.1025 1.26318C8.74172 1.26318 7.52002 2.50169 7.25818 2.7864C6.71198 3.38086 6.25324 4.05302 6.13144 5.4096C6.04184 6.3956 6.12232 7.45061 6.15559 7.99191C6.16632 8.16161 6.11159 8.23624 5.95599 8.23624C5.91978 8.23565 5.88377 8.23101 5.84869 8.22244C5.55734 8.15548 5.05299 7.90757 4.53362 7.80023C4.4489 7.78214 4.36236 7.77288 4.27554 7.77263C3.99922 7.77263 3.739 7.87486 3.63169 8.14065C3.47824 8.52708 3.68534 8.84143 4.15965 9.1563C4.44563 9.34645 5.47632 9.95369 5.70865 10.1587C5.94902 10.3703 5.9179 10.5338 5.89 10.7419C5.86693 10.9162 5.34809 13.2317 2.09664 14.7288C1.90617 14.8167 1.5821 15.0028 2.15351 15.3033C3.05061 15.7756 3.64779 15.725 4.1119 16.0097C4.50572 16.2515 4.27286 16.7729 4.55937 16.961C4.91135 17.1925 5.9517 16.9446 7.29574 17.3673C8.42248 17.7211 9.10711 18.7204 11.1052 18.7204C13.1033 18.7204 13.8078 17.7165 14.9146 17.3673C16.256 16.9446 17.2985 17.1925 17.651 16.961C17.937 16.7729 17.7047 16.2515 18.0985 16.0097C18.5626 15.725 19.1592 15.7756 20.0569 15.3033C20.6272 15.0064 20.3032 14.8203 20.1127 14.7324Z" fill="white"/>
<path d="M21.5276 14.5568C21.3816 14.1785 21.1037 13.9761 20.7872 13.8084C20.7276 13.7752 20.6729 13.7486 20.6262 13.7282C20.5318 13.6817 20.4352 13.6367 20.3391 13.5892C19.3524 13.0908 18.582 12.4621 18.0476 11.7168C17.8958 11.507 17.7642 11.2846 17.6543 11.0523C17.6087 10.9281 17.6108 10.8576 17.6436 10.7932C17.676 10.7436 17.719 10.7009 17.7696 10.668C17.9392 10.5611 18.1141 10.4528 18.2327 10.3797C18.4441 10.2493 18.6115 10.1461 18.7193 10.073C19.1244 9.8031 19.4077 9.51635 19.5848 9.19586C19.7083 8.97444 19.7803 8.73027 19.796 8.47995C19.8116 8.22964 19.7705 7.97905 19.6754 7.74523C19.4072 7.07256 18.7402 6.65495 17.9322 6.65495C17.7618 6.6548 17.5918 6.67193 17.4252 6.70607C17.3806 6.71527 17.3361 6.72498 17.2927 6.73571C17.3002 6.27568 17.2894 5.79009 17.2465 5.31217C17.0941 3.63203 16.4766 2.75133 15.8327 2.04902C15.4204 1.60891 14.9348 1.23658 14.3953 0.946985C13.4183 0.415393 12.3103 0.145508 11.1026 0.145508C9.8948 0.145508 8.7922 0.415393 7.81408 0.946985C7.27331 1.23667 6.78669 1.60975 6.374 2.05106C5.73015 2.75337 5.11259 3.63561 4.96021 5.31422C4.91729 5.79214 4.90656 6.28028 4.91353 6.73776C4.87007 6.72702 4.82608 6.71731 4.78154 6.70811C4.61492 6.67398 4.44495 6.65684 4.27451 6.657C3.46594 6.657 2.79794 7.0746 2.53075 7.74727C2.43524 7.9812 2.39371 8.23197 2.40899 8.48254C2.42426 8.73311 2.49598 8.97762 2.61928 9.19944C2.79687 9.51993 3.08017 9.80668 3.48526 10.0766C3.59256 10.1481 3.7605 10.2514 3.9719 10.3833C4.08618 10.4538 4.25305 10.557 4.41669 10.6603C4.47395 10.6956 4.52261 10.7421 4.55941 10.7968C4.59375 10.8637 4.59483 10.9358 4.54385 11.0687C4.43544 11.2961 4.30598 11.5139 4.15701 11.7194C3.63441 12.4478 2.88647 13.0652 1.93143 13.5595C1.42547 13.8151 0.899655 13.9858 0.677527 14.5608C0.510125 14.9948 0.61958 15.4886 1.04506 15.9047C1.20121 16.0599 1.38233 16.1906 1.5816 16.2916C1.99624 16.5087 2.43714 16.6767 2.89452 16.792C2.98891 16.8152 3.07852 16.8534 3.15957 16.905C3.31464 17.0343 3.29264 17.229 3.49921 17.5142C3.6029 17.6617 3.73466 17.7893 3.88766 17.8905C4.32119 18.1757 4.80837 18.1936 5.32452 18.2125C5.79078 18.2293 6.31928 18.2488 6.92289 18.4384C7.17292 18.5171 7.4326 18.6694 7.7336 18.8473C8.45633 19.2705 9.44571 19.8497 11.1015 19.8497C12.7573 19.8497 13.7536 19.2675 14.4817 18.8427C14.7806 18.6679 15.0386 18.5171 15.2817 18.4404C15.8853 18.2503 16.4138 18.2314 16.88 18.2145C17.3962 18.1956 17.8834 18.1777 18.3169 17.8925C18.4981 17.7721 18.6491 17.615 18.759 17.4325C18.9076 17.1917 18.9039 17.0236 19.0434 16.906C19.1194 16.8569 19.2036 16.8202 19.2923 16.7976C19.756 16.682 20.2029 16.5124 20.623 16.2926C20.8347 16.1844 21.0253 16.0423 21.1863 15.8724L21.1917 15.8663C21.5909 15.4594 21.6912 14.98 21.5276 14.5568ZM20.0558 15.3102C19.1582 15.7825 18.5616 15.7319 18.0975 16.0166C17.7031 16.2584 17.9365 16.7797 17.65 16.9678C17.298 17.1994 16.2577 16.9515 14.9136 17.3742C13.8051 17.7233 13.098 18.7272 11.1042 18.7272C9.11037 18.7272 8.41984 17.7254 7.2931 17.3716C5.95174 16.9489 4.90924 17.1968 4.55673 16.9653C4.27075 16.7772 4.50308 16.2558 4.10926 16.014C3.64461 15.7293 3.04797 15.7799 2.15087 15.3102C1.57946 15.0096 1.90353 14.8236 2.094 14.7357C5.34545 13.236 5.86429 10.9205 5.88736 10.7487C5.91526 10.5407 5.94638 10.3771 5.70601 10.1655C5.47368 9.96105 4.44298 9.35329 4.15701 9.16315C3.68378 8.84828 3.4756 8.53393 3.62905 8.1475C3.73636 7.88017 3.99819 7.77947 4.2729 7.77947C4.35972 7.77973 4.44626 7.78898 4.53098 7.80708C5.05035 7.91442 5.5547 8.16232 5.84604 8.22928C5.88112 8.23786 5.91714 8.24249 5.95335 8.24308C6.10895 8.24308 6.16368 8.16846 6.15295 7.99876C6.11968 7.45745 6.0392 6.40245 6.1288 5.41645C6.25167 4.05986 6.71042 3.38771 7.25554 2.79324C7.51738 2.50751 8.74767 1.26901 11.1004 1.26901C13.4531 1.26901 14.6867 2.5024 14.9485 2.78711C15.4942 3.38157 15.9534 4.05373 16.0752 5.41031C16.1648 6.39631 16.0876 7.45183 16.0511 7.99262C16.0388 8.17101 16.0951 8.23695 16.2507 8.23695C16.2869 8.2364 16.3229 8.23176 16.358 8.22315C16.6499 8.15619 17.1542 7.90828 17.6736 7.80094C17.7583 7.78285 17.8449 7.77359 17.9317 7.77334C18.208 7.77334 18.4682 7.87557 18.5755 8.14137C18.729 8.52779 18.5219 8.84215 18.0481 9.15701C17.7621 9.34716 16.7314 9.9544 16.4991 10.1594C16.2582 10.371 16.2899 10.5346 16.3178 10.7426C16.3408 10.9169 16.8591 13.2324 20.1111 14.7295C20.3032 14.821 20.6273 15.0071 20.0558 15.3102Z" fill="black"/>
</svg>
