<svg width="93" height="93" viewBox="0 0 93 93" fill="none" xmlns="http://www.w3.org/2000/svg">
<path d="M23.25 40.6875H55.2188V46.5H23.25V40.6875ZM23.25 55.2188H61.0312V61.0312H23.25V55.2188Z" fill="black"/>
<path d="M81.375 11.625H11.625C10.0834 11.625 8.605 12.2374 7.51494 13.3274C6.42489 14.4175 5.8125 15.8959 5.8125 17.4375V75.5625C5.8125 77.1041 6.42489 78.5825 7.51494 79.6726C8.605 80.7626 10.0834 81.375 11.625 81.375H81.375C82.9166 81.375 84.395 80.7626 85.4851 79.6726C86.5751 78.5825 87.1875 77.1041 87.1875 75.5625V17.4375C87.1875 15.8959 86.5751 14.4175 85.4851 13.3274C84.395 12.2374 82.9166 11.625 81.375 11.625ZM81.375 17.4375V23.25H11.625V17.4375H81.375ZM11.625 75.5625V29.0625H81.375V75.5625H11.625Z" fill="black"/>
</svg>
