<svg width="22" height="20" viewBox="0 0 22 20" fill="none" xmlns="http://www.w3.org/2000/svg">
<path d="M15.6321 7.21891C16.9825 8.14155 18.6369 8.68441 20.4236 8.68441V5.39819C20.0855 5.39826 19.7482 5.36456 19.4174 5.29757V7.88429C17.6308 7.88429 15.9766 7.34143 14.6258 6.41885V13.1251C14.6258 16.4799 11.7804 19.1993 8.27061 19.1993C6.96102 19.1993 5.7438 18.8209 4.73267 18.1719C5.88671 19.2997 7.49612 19.9993 9.27665 19.9993C12.7867 19.9993 15.6322 17.2799 15.6322 13.925V7.21891H15.6321ZM16.8734 3.90351C16.1833 3.18287 15.7301 2.25158 15.6321 1.22199V0.799316H14.6785C14.9185 2.10792 15.7372 3.22591 16.8734 3.90351ZM6.95262 15.5975C6.56703 15.1143 6.35865 14.5232 6.35959 13.9154C6.35959 12.381 7.66107 11.137 9.26674 11.137C9.56599 11.1369 9.86343 11.1807 10.1486 11.2672V7.90749C9.81534 7.86384 9.47899 7.8453 9.14278 7.8521V10.4671C8.85739 10.3806 8.5598 10.3367 8.26049 10.337C6.65481 10.337 5.3534 11.5809 5.3534 13.1155C5.3534 14.2005 6.00393 15.1399 6.95262 15.5975Z" fill="#FF004F"/>
<path d="M14.6259 6.41878C15.9767 7.34136 17.6308 7.88422 19.4174 7.88422V5.2975C18.4201 5.09446 17.5373 4.59635 16.8735 3.90351C15.7372 3.22584 14.9186 2.10785 14.6786 0.799316H12.1738V13.9249C12.1681 15.455 10.8689 16.694 9.26664 16.694C8.32247 16.694 7.48367 16.2639 6.95244 15.5975C6.00382 15.1399 5.3533 14.2004 5.3533 13.1155C5.3533 11.5811 6.65471 10.337 8.26038 10.337C8.56802 10.337 8.86454 10.3828 9.14268 10.4672V7.85217C5.69453 7.92026 2.92139 10.6131 2.92139 13.9249C2.92139 15.5782 3.61196 17.0769 4.73278 18.172C5.74392 18.8209 6.96113 19.1993 8.27072 19.1993C11.7806 19.1993 14.6259 16.4798 14.6259 13.1251V6.41878H14.6259Z" fill="black"/>
<path d="M19.4174 5.29768V4.59825C18.5181 4.59955 17.6364 4.35884 16.8734 3.90362C17.5489 4.6104 18.4383 5.09773 19.4174 5.29768ZM14.6785 0.799498C14.6556 0.674438 14.638 0.548554 14.6258 0.42219V-0.000488281H11.1674V13.1252C11.1619 14.6552 9.86272 15.8942 8.26034 15.8942C7.78991 15.8942 7.34575 15.7874 6.9524 15.5978C7.48363 16.264 8.32243 16.6941 9.2666 16.6941C10.8687 16.6941 12.1682 15.4553 12.1738 13.9251V0.799498H14.6785ZM9.14278 7.85235V7.10776C8.8538 7.07 8.56246 7.05106 8.27075 7.0512C4.76059 7.05113 1.91516 9.77067 1.91516 13.1252C1.91516 15.2283 3.03346 17.0817 4.73281 18.172C3.61199 17.077 2.92142 15.5782 2.92142 13.925C2.92142 10.6133 5.69449 7.92044 9.14278 7.85235Z" fill="#00F2EA"/>
</svg>
