<svg width="39" height="29" viewBox="0 0 39 29" fill="none" xmlns="http://www.w3.org/2000/svg">
<path fill-rule="evenodd" clip-rule="evenodd" d="M11.5547 26.0561C11.5547 25.6935 11.6988 25.3456 11.9552 25.0892C12.2116 24.8328 12.5594 24.6887 12.9221 24.6887H37.5353C37.8979 24.6887 38.2457 24.8328 38.5022 25.0892C38.7586 25.3456 38.9027 25.6935 38.9027 26.0561C38.9027 26.4188 38.7586 26.7666 38.5022 27.023C38.2457 27.2794 37.8979 27.4235 37.5353 27.4235H12.9221C12.5594 27.4235 12.2116 27.2794 11.9552 27.023C11.6988 26.7666 11.5547 26.4188 11.5547 26.0561ZM11.5547 15.1169C11.5547 14.7543 11.6988 14.4065 11.9552 14.15C12.2116 13.8936 12.5594 13.7495 12.9221 13.7495H37.5353C37.8979 13.7495 38.2457 13.8936 38.5022 14.15C38.7586 14.4065 38.9027 14.7543 38.9027 15.1169C38.9027 15.4796 38.7586 15.8274 38.5022 16.0838C38.2457 16.3403 37.8979 16.4843 37.5353 16.4843H12.9221C12.5594 16.4843 12.2116 16.3403 11.9552 16.0838C11.6988 15.8274 11.5547 15.4796 11.5547 15.1169ZM11.5547 4.17773C11.5547 3.81507 11.6988 3.46727 11.9552 3.21083C12.2116 2.9544 12.5594 2.81033 12.9221 2.81033H37.5353C37.8979 2.81033 38.2457 2.9544 38.5022 3.21083C38.7586 3.46727 38.9027 3.81507 38.9027 4.17773C38.9027 4.54039 38.7586 4.88819 38.5022 5.14463C38.2457 5.40106 37.8979 5.54513 37.5353 5.54513H12.9221C12.5594 5.54513 12.2116 5.40106 11.9552 5.14463C11.6988 4.88819 11.5547 4.54039 11.5547 4.17773ZM8.42061 0.474814C8.54795 0.601834 8.64898 0.752728 8.71791 0.918853C8.78685 1.08498 8.82233 1.26307 8.82233 1.44293C8.82233 1.62279 8.78685 1.80089 8.71791 1.96701C8.64898 2.13314 8.54795 2.28403 8.42061 2.41105L4.31841 6.51325C4.19139 6.64059 4.0405 6.74162 3.87437 6.81055C3.70825 6.87949 3.53015 6.91497 3.35029 6.91497C3.17043 6.91497 2.99234 6.87949 2.82622 6.81055C2.66009 6.74162 2.5092 6.64059 2.38218 6.51325L1.01478 5.14585C0.887642 5.01871 0.786793 4.86778 0.717988 4.70167C0.649183 4.53556 0.61377 4.35753 0.61377 4.17773C0.61377 3.99793 0.649183 3.8199 0.717988 3.65379C0.786793 3.48768 0.887642 3.33675 1.01478 3.20961C1.14191 3.08248 1.29284 2.98163 1.45895 2.91282C1.62506 2.84402 1.8031 2.8086 1.9829 2.8086C2.16269 2.8086 2.34073 2.84402 2.50684 2.91282C2.67295 2.98163 2.82388 3.08248 2.95101 3.20961L3.35029 3.61163L6.48437 0.474814C6.61139 0.347473 6.76228 0.246442 6.92841 0.177508C7.09454 0.108573 7.27263 0.0730896 7.45249 0.0730896C7.63235 0.0730896 7.81044 0.108573 7.97657 0.177508C8.14269 0.246442 8.29359 0.347473 8.42061 0.474814ZM8.42061 11.414C8.54795 11.541 8.64898 11.6919 8.71791 11.858C8.78685 12.0242 8.82233 12.2023 8.82233 12.3821C8.82233 12.562 8.78685 12.7401 8.71791 12.9062C8.64898 13.0723 8.54795 13.2232 8.42061 13.3502L4.31841 17.4524C4.19139 17.5798 4.0405 17.6808 3.87437 17.7497C3.70825 17.8187 3.53015 17.8542 3.35029 17.8542C3.17043 17.8542 2.99234 17.8187 2.82622 17.7497C2.66009 17.6808 2.5092 17.5798 2.38218 17.4524L1.01478 16.085C0.758016 15.8283 0.61377 15.48 0.61377 15.1169C0.61377 14.7538 0.758016 14.4056 1.01478 14.1488C1.27154 13.892 1.61978 13.7478 1.9829 13.7478C2.34601 13.7478 2.69425 13.892 2.95101 14.1488L3.35029 14.5508L6.48437 11.414C6.61139 11.2867 6.76228 11.1856 6.92841 11.1167C7.09454 11.0478 7.27263 11.0123 7.45249 11.0123C7.63235 11.0123 7.81044 11.0478 7.97657 11.1167C8.14269 11.1856 8.29359 11.2867 8.42061 11.414ZM8.42061 22.3532C8.54795 22.4802 8.64898 22.6311 8.71791 22.7972C8.78685 22.9634 8.82233 23.1414 8.82233 23.3213C8.82233 23.5012 8.78685 23.6793 8.71791 23.8454C8.64898 24.0115 8.54795 24.1624 8.42061 24.2894L4.31841 28.3916C4.19139 28.519 4.0405 28.62 3.87437 28.6889C3.70825 28.7579 3.53015 28.7933 3.35029 28.7933C3.17043 28.7933 2.99234 28.7579 2.82622 28.6889C2.66009 28.62 2.5092 28.519 2.38218 28.3916L1.01478 27.0242C0.758016 26.7675 0.61377 26.4192 0.61377 26.0561C0.61377 25.693 0.758016 25.3447 1.01478 25.088C1.27154 24.8312 1.61978 24.687 1.9829 24.687C2.34601 24.687 2.69425 24.8312 2.95101 25.088L3.35029 25.49L6.48437 22.3532C6.61139 22.2259 6.76228 22.1248 6.92841 22.0559C7.09454 21.987 7.27263 21.9515 7.45249 21.9515C7.63235 21.9515 7.81044 21.987 7.97657 22.0559C8.14269 22.1248 8.29359 22.2259 8.42061 22.3532Z" fill="black"/>
</svg>
