<svg width="74" height="74" viewBox="0 0 74 74" fill="none" xmlns="http://www.w3.org/2000/svg">
<path d="M39.3125 25.4375H25.4375C23.5976 25.4375 21.833 26.1684 20.5319 27.4694C19.2309 28.7705 18.5 30.5351 18.5 32.375V41.625H23.125V32.375C23.125 31.7617 23.3686 31.1735 23.8023 30.7398C24.236 30.3061 24.8242 30.0625 25.4375 30.0625H39.3125C39.9258 30.0625 40.514 30.3061 40.9477 30.7398C41.3814 31.1735 41.625 31.7617 41.625 32.375V34.6875H46.25V32.375C46.25 30.5351 45.5191 28.7705 44.2181 27.4694C42.917 26.1684 41.1524 25.4375 39.3125 25.4375Z" fill="black"/>
<path d="M23.125 13.875C23.125 15.7045 23.6675 17.4929 24.6839 19.014C25.7003 20.5352 27.145 21.7208 28.8352 22.4209C30.5254 23.121 32.3853 23.3042 34.1796 22.9473C35.9739 22.5904 37.6221 21.7094 38.9157 20.4157C40.2094 19.1221 41.0904 17.4739 41.4473 15.6796C41.8042 13.8853 41.621 12.0254 40.9209 10.3352C40.2208 8.64496 39.0352 7.20031 37.514 6.18391C35.9929 5.1675 34.2045 4.625 32.375 4.625C29.9217 4.625 27.569 5.59955 25.8343 7.33426C24.0996 9.06897 23.125 11.4217 23.125 13.875ZM37 13.875C37 14.7897 36.7287 15.6839 36.2205 16.4445C35.7123 17.2051 34.99 17.7979 34.1449 18.1479C33.2998 18.498 32.3699 18.5896 31.4727 18.4111C30.5755 18.2327 29.7515 17.7922 29.1046 17.1454C28.4578 16.4986 28.0173 15.6745 27.8389 14.7773C27.6604 13.8801 27.752 12.9502 28.1021 12.1051C28.4521 11.26 29.0449 10.5377 29.8055 10.0295C30.5661 9.52125 31.4603 9.25 32.375 9.25C33.6016 9.25 34.778 9.73728 35.6454 10.6046C36.5127 11.472 37 12.6484 37 13.875Z" fill="black"/>
<path d="M50.875 62.4375H37C35.7737 62.4363 34.5981 61.9486 33.731 61.0815C32.8639 60.2144 32.3762 59.0387 32.375 57.8125V43.9375C32.3762 42.7112 32.8639 41.5356 33.731 40.6685C34.5981 39.8014 35.7737 39.3137 37 39.3125H50.875C52.1012 39.3137 53.2769 39.8014 54.144 40.6685C55.0111 41.5356 55.4988 42.7112 55.5 43.9375V57.8125C55.4988 59.0387 55.0111 60.2144 54.144 61.0815C53.2769 61.9486 52.1012 62.4363 50.875 62.4375ZM37 43.9375V57.8125H50.875V43.9375H37Z" fill="black"/>
<path d="M18.5 69.375H9.25C8.02375 69.3738 6.84807 68.8861 5.98098 68.019C5.11389 67.1519 4.62622 65.9762 4.625 64.75V9.25C4.62622 8.02375 5.11389 6.84807 5.98098 5.98098C6.84807 5.11389 8.02375 4.62622 9.25 4.625H18.5V9.25H9.25V64.75H18.5V69.375Z" fill="black"/>
<path d="M64.75 69.375H55.5V64.75H64.75V9.25H55.5V4.625H64.75C65.9763 4.62622 67.1519 5.11389 68.019 5.98098C68.8861 6.84807 69.3738 8.02375 69.375 9.25V64.75C69.3738 65.9762 68.8861 67.1519 68.019 68.019C67.1519 68.8861 65.9763 69.3738 64.75 69.375Z" fill="black"/>
</svg>
