<svg width="57" height="57" viewBox="0 0 57 57" fill="none" xmlns="http://www.w3.org/2000/svg">
<path d="M42.75 44.7924H40.945C39.045 44.7924 37.24 45.5286 35.91 46.8586L31.8487 50.8724C29.9962 52.7011 26.98 52.7011 25.1275 50.8724L21.0662 46.8586C19.7362 45.5286 17.9075 44.7924 16.0312 44.7924H14.25C10.3075 44.7924 7.125 41.6337 7.125 37.7387V11.8274C7.125 7.93236 10.3075 4.77368 14.25 4.77368H42.75C46.6925 4.77368 49.875 7.93236 49.875 11.8274V37.7387C49.875 41.6099 46.6925 44.7924 42.75 44.7924Z" stroke="#292D32" stroke-width="1.5" stroke-miterlimit="10" stroke-linecap="round" stroke-linejoin="round"/>
<path d="M28.5001 23.7501C31.5563 23.7501 34.0339 21.2725 34.0339 18.2163C34.0339 15.1601 31.5563 12.6826 28.5001 12.6826C25.4439 12.6826 22.9663 15.1601 22.9663 18.2163C22.9663 21.2725 25.4439 23.7501 28.5001 23.7501Z" stroke="#292D32" stroke-width="1.5" stroke-linecap="round" stroke-linejoin="round"/>
<path d="M38 37.1926C38 32.9176 33.7488 29.4502 28.5 29.4502C23.2512 29.4502 19 32.9176 19 37.1926" stroke="#292D32" stroke-width="1.5" stroke-linecap="round" stroke-linejoin="round"/>
</svg>
