<?xml version="1.0" encoding="utf-8"?>
<!-- Generator: Adobe Illustrator 25.1.0, SVG Export Plug-In . SVG Version: 6.00 Build 0)  -->
<svg version="1.1" id="Layer_1" xmlns="http://www.w3.org/2000/svg" xmlns:xlink="http://www.w3.org/1999/xlink" x="0px" y="0px"
	 viewBox="0 0 631 343" style="enable-background:new 0 0 631 343;" xml:space="preserve">
<style type="text/css">
	.st0{clip-path:url(#SVGID_2_);fill:#2B2D42;}
	.st1{clip-path:url(#SVGID_2_);fill:#E994A0;}
	.st2{clip-path:url(#SVGID_2_);fill:none;stroke:#3F3D56;stroke-miterlimit:10;}
	.st3{clip-path:url(#SVGID_2_);fill:#2F2E41;}
	.st4{opacity:0.1;clip-path:url(#SVGID_2_);enable-background:new    ;}
	.st5{clip-path:url(#SVGID_2_);fill:#3F3D56;}
	.st6{clip-path:url(#SVGID_2_);fill:#FBBEBE;}
	.st7{clip-path:url(#SVGID_2_);fill:#FD3D57;}
	.st8{clip-path:url(#SVGID_2_);fill:#6C63FF;}
	.st9{clip-path:url(#SVGID_2_);fill:#57B894;}
	.st10{clip-path:url(#SVGID_2_);fill:#FFFFFF;}
	.st11{opacity:0.3;clip-path:url(#SVGID_2_);fill:#6C63FF;enable-background:new    ;}
</style>
<g>
	<defs>
		<rect id="SVGID_1_" width="631" height="343"/>
	</defs>
	<clipPath id="SVGID_2_">
		<use xlink:href="#SVGID_1_"  style="overflow:visible;"/>
	</clipPath>
	<path class="st0" d="M305.8,98.1c-50.5,0-86.7,32.4-86.7,107.9c0,85.6,36.2,108.3,86.7,108.3c50.5,0,88.9-24.8,88.9-108.3
		C394.7,116.8,356.3,98.1,305.8,98.1z M306.1,285.8c-35,0-53.2-20.5-53.2-79.8c0-52.3,19-79.9,54-79.9s54,18.1,54,79.9
		C360.9,263.8,341.1,285.8,306.1,285.8z"/>
	<path class="st1" d="M188.9,254.5H168v-61.4c0-3.3-1.3-6.4-3.6-8.7c-2.3-2.3-5.4-3.6-8.7-3.6h-4.9c-1.6,0-3.2,0.3-4.7,0.9
		c-1.5,0.6-2.9,1.5-4,2.7c-1.1,1.1-2,2.5-2.7,4c-0.6,1.5-0.9,3.1-0.9,4.7v61.4H79.6c-1.2,0-2.4-0.3-3.5-0.9
		c-1.1-0.6-1.9-1.5-2.6-2.5c-0.6-1-1-2.2-1-3.4c0-1.2,0.2-2.4,0.8-3.5l62.3-117.9c0.8-1.5,1.2-3.1,1.4-4.7c0.1-1.7-0.1-3.3-0.6-4.9
		c-0.5-1.6-1.4-3-2.5-4.3c-1.1-1.2-2.4-2.3-4-3l-3.7-1.7c-2.9-1.3-6.1-1.5-9.1-0.6c-3,1-5.5,3.1-7,5.9l-76,142.1
		c-1.3,2.4-2,5.1-2,7.9c0,2.2,0.4,4.4,1.3,6.4c0.8,2,2.1,3.9,3.6,5.4c1.5,1.5,3.4,2.8,5.4,3.6c2,0.8,4.2,1.3,6.4,1.3h89.5v38.8
		c0,1.9,0.4,3.9,1.1,5.6c0.7,1.8,1.8,3.4,3.2,4.8c1.4,1.4,3,2.5,4.8,3.2c1.8,0.7,3.7,1.1,5.6,1.1c1.9,0,3.9-0.4,5.6-1.1
		c1.8-0.7,3.4-1.8,4.8-3.2c1.4-1.4,2.5-3,3.2-4.8c0.7-1.8,1.1-3.7,1.1-5.6v-38.8h20.9c3.3,0,6.5-1.3,8.9-3.7
		c2.4-2.4,3.7-5.6,3.7-8.9c0-3.3-1.3-6.5-3.7-8.9C195.4,255.8,192.2,254.5,188.9,254.5z"/>
	<path class="st1" d="M575.3,254.5h-20.9v-61.4c0-3.3-1.3-6.4-3.6-8.7c-2.3-2.3-5.4-3.6-8.7-3.6h-4.9c-1.6,0-3.2,0.3-4.7,0.9
		c-1.5,0.6-2.9,1.5-4,2.7c-1.1,1.1-2,2.5-2.7,4c-0.6,1.5-0.9,3.1-0.9,4.7v61.4h-58.9c-1.2,0-2.4-0.3-3.5-0.9
		c-1.1-0.6-1.9-1.5-2.6-2.5c-0.6-1-1-2.2-1-3.4c0-1.2,0.2-2.4,0.8-3.5l62.3-117.9c0.8-1.5,1.2-3.1,1.4-4.7c0.1-1.7-0.1-3.3-0.6-4.9
		c-0.5-1.6-1.4-3-2.5-4.3c-1.1-1.2-2.4-2.3-4-3l-3.7-1.7c-2.9-1.3-6.1-1.5-9.1-0.6c-3,1-5.5,3.1-7,5.9l-76,142.1
		c-1.3,2.4-2,5.1-2,7.9c0,4.4,1.8,8.7,4.9,11.8c3.1,3.1,7.4,4.9,11.8,4.9h89.5v38.8c0,3.9,1.6,7.7,4.3,10.4
		c2.8,2.8,6.5,4.3,10.4,4.3s7.7-1.6,10.4-4.3c2.8-2.8,4.3-6.5,4.3-10.4v-38.8h20.9c3.3,0,6.5-1.3,8.9-3.7c2.4-2.4,3.7-5.6,3.7-8.9
		c0-3.3-1.3-6.5-3.7-8.9C581.8,255.8,578.6,254.5,575.3,254.5z"/>
	<path class="st2" d="M194.6,247.3h-20.9v-61.4c0-1.6-0.3-3.2-0.9-4.7c-0.6-1.5-1.5-2.8-2.7-4c-1.1-1.1-2.5-2-4-2.7
		c-1.5-0.6-3.1-0.9-4.7-0.9h-4.9c-3.3,0-6.4,1.3-8.7,3.6c-2.3,2.3-3.6,5.4-3.6,8.7v61.4H85.4c-1.2,0-2.4-0.3-3.5-0.9
		c-1.1-0.6-1.9-1.5-2.6-2.5s-1-2.2-1-3.4c0-1.2,0.2-2.4,0.8-3.5l62.3-117.9c0.8-1.5,1.2-3.1,1.4-4.7c0.1-1.7-0.1-3.3-0.6-4.9
		c-0.5-1.6-1.4-3-2.5-4.3c-1.1-1.2-2.4-2.3-4-3l-3.7-1.7c-2.9-1.3-6.1-1.5-9.1-0.6c-3,1-5.5,3.1-7,5.9L40.1,248
		c-1.3,2.4-2,5.1-2,7.9l0,0c0,4.4,1.8,8.7,4.9,11.8c3.1,3.1,7.4,4.9,11.8,4.9h89.5v38.8c0,1.9,0.4,3.9,1.1,5.6
		c0.7,1.8,1.8,3.4,3.2,4.8c1.4,1.4,3,2.5,4.8,3.2c1.8,0.7,3.7,1.1,5.6,1.1l0,0c3.9,0,7.7-1.6,10.4-4.3c2.8-2.8,4.3-6.5,4.3-10.4
		v-38.8h20.9c1.7,0,3.3-0.3,4.8-1c1.5-0.6,2.9-1.6,4.1-2.7c1.2-1.2,2.1-2.6,2.7-4.1c0.6-1.5,1-3.2,1-4.8l0,0c0-1.7-0.3-3.3-1-4.8
		c-0.6-1.5-1.6-2.9-2.7-4.1c-1.2-1.2-2.6-2.1-4.1-2.7C197.9,247.6,196.3,247.3,194.6,247.3L194.6,247.3z"/>
	<path class="st2" d="M586.1,247.3h-20.9v-61.4c0-3.3-1.3-6.4-3.6-8.7c-2.3-2.3-5.4-3.6-8.7-3.6H548c-1.6,0-3.2,0.3-4.7,0.9
		c-1.5,0.6-2.9,1.5-4,2.7c-1.1,1.1-2.1,2.5-2.7,4c-0.6,1.5-0.9,3.1-0.9,4.7v61.4h-58.9c-1.2,0-2.4-0.3-3.5-0.9
		c-1.1-0.6-1.9-1.5-2.6-2.5s-1-2.2-1-3.4c0-1.2,0.2-2.4,0.8-3.5l62.3-117.9c0.8-1.5,1.2-3.1,1.4-4.7c0.1-1.7-0.1-3.3-0.6-4.9
		c-0.5-1.6-1.4-3-2.5-4.3c-1.1-1.2-2.4-2.3-4-3l-3.7-1.7c-2.9-1.3-6.1-1.5-9.1-0.6c-3,1-5.5,3.1-7,5.9l-76,142.1
		c-1.3,2.4-2,5.1-2,7.9c0,4.4,1.8,8.7,4.9,11.8c3.1,3.1,7.4,4.9,11.8,4.9h89.5v38.8c0,3.9,1.6,7.7,4.3,10.4
		c2.8,2.8,6.5,4.3,10.4,4.3l0,0c3.9,0,7.7-1.6,10.4-4.3c2.8-2.8,4.3-6.5,4.3-10.4v-38.8h20.9c1.7,0,3.3-0.3,4.8-1
		c1.5-0.6,2.9-1.6,4.1-2.7c1.2-1.2,2.1-2.6,2.7-4.1c0.6-1.5,1-3.2,1-4.8l0,0c0-3.3-1.3-6.5-3.7-8.9
		C592.6,248.6,589.4,247.3,586.1,247.3L586.1,247.3z"/>
	<path class="st2" d="M317.3,91.6c-50.5,0-86.7,32.4-86.7,107.9c0,85.6,36.2,108.3,86.7,108.3s88.9-24.8,88.9-108.3
		C406.2,110.3,367.8,91.6,317.3,91.6z M317.6,279.3c-35,0-53.2-20.5-53.2-79.8c0-52.3,19-79.9,54-79.9c35,0,54,18.1,54,79.9
		C372.4,257.3,352.6,279.3,317.6,279.3L317.6,279.3z"/>
	<path class="st3" d="M276.9,18.3c4.2,0,7.6-3.4,7.6-7.6c0-4.2-3.4-7.6-7.6-7.6c-4.2,0-7.6,3.4-7.6,7.6
		C269.3,14.9,272.7,18.3,276.9,18.3z"/>
	<path class="st3" d="M295.3,55.1c11.7,0,21.3-12.3,21.3-27.5S307.1,0,295.3,0c-11.7,0-21.3,12.3-21.3,27.5S283.6,55.1,295.3,55.1z"
		/>
	<path class="st4" d="M295.3,46.7c-10.6,0-19.5-10.1-21-23.4c-0.2,1.4-0.2,2.8-0.2,4.2c0,15.2,9.5,27.5,21.3,27.5
		c11.7,0,21.3-12.3,21.3-27.5c0-1.4-0.1-2.8-0.2-4.2C314.8,36.6,306,46.7,295.3,46.7z"/>
	<path class="st5" d="M338.6,108.1c-0.5,1.9-2.4,3.4-4.6,4.4c-4.6,2.2-10.2,2.9-15.7,3.1c-1.4,0.1-2.8,0.1-4.2-0.1
		c-2.7-0.3-5.2-1.4-7.2-3.3c-0.1-0.1-0.3-0.2-0.3-0.4c-0.1-0.1-0.1-0.3-0.1-0.5c0-0.2,0-0.3,0.1-0.5c0.1-0.1,0.2-0.3,0.3-0.4
		c2.9-3.2,7.8-5.2,12.7-6.6c3.7-1.1,10.2-3.9,14.3-3.5C337.8,100.9,339.2,105.8,338.6,108.1z"/>
	<path class="st4" d="M338.6,108.1c-0.5,1.9-2.4,3.4-4.6,4.4c-4.6,2.2-10.2,2.9-15.7,3.1c-1.4,0.1-2.8,0.1-4.2-0.1
		c-2.7-0.3-5.2-1.4-7.2-3.3c-0.1-0.1-0.3-0.2-0.3-0.4c-0.1-0.1-0.1-0.3-0.1-0.5c0-0.2,0-0.3,0.1-0.5c0.1-0.1,0.2-0.3,0.3-0.4
		c2.9-3.2,7.8-5.2,12.7-6.6c3.7-1.1,10.2-3.9,14.3-3.5C337.8,100.9,339.2,105.8,338.6,108.1z"/>
	<path class="st5" d="M280.3,94.1c-1.4,2.7-1.7,5.9-0.7,8.9c1,2.9,2.8,5.5,5.2,7.3c5.9,4.8,14.1,5.4,21.7,5.3
		c6.7-0.1,13.3-0.5,19.9-1.4c2.2-0.2,4.4-0.7,6.5-1.5c2.5-1.1,4.7-3,5.5-5.6c0.9-2.6,0.3-5.7-1.8-7.4c-1.8-1.5-4.4-1.7-6.8-1.8
		l-13.6-0.8c1.3-1.4,3.1-2.1,4.8-3.1c2.2-1.3,3.6-3.5,5.2-5.5c2.4-2.9,5.1-5.6,7.9-8.1c0.4,2.5,2,4.6,3.9,6.4c1.9,1.7,4.1,3.2,6,4.8
		c4.7,4,8.2,9.5,13.2,13.2c3.4-0.9,6.6-2.5,9.4-4.7l-1.9-3.5c-0.2-0.4-0.4-0.7-0.7-0.9c-0.5-0.3-1.3-0.2-1.9-0.3
		c-1.7-0.3-2.4-2.2-3.1-3.8c-1.8-4.4-5.3-7.7-8.4-11.4c-2.2-2.7-4.2-5.6-5.9-8.6c-1-1.8-1.9-3.7-3.3-5.3s-3.3-2.8-5.4-2.8
		c-1.8,0-3.5,0.9-5.1,1.9c-4.8,2.9-9.5,6-13.9,9.5c-2.3,1.8-4.6,3.7-7.3,4.8c-1.1,0.5-2.4,0.8-3.4,1.3c-1.9,1-3.4,2.7-5,4.1
		C295.7,90.4,288,93.8,280.3,94.1z"/>
	<path class="st6" d="M308.7,56.4c-0.1,1.6-0.4,3.2-1,4.7c-0.3,0.7-0.8,1.4-1.4,2c-0.6,0.6-1.3,1-2,1.3c-1.1,0.3-2.2,0.3-3.3,0.1
		c-1-0.1-1.9-0.4-2.7-0.9c-1.3-0.9-1.9-2.4-2.1-4c-0.2-1.5-0.1-3.1-0.3-4.6c-0.1-1.2-0.4-2.5-0.7-3.7c-0.1-0.4-0.2-0.8-0.3-1.2
		c-0.1-0.4-0.2-0.8-0.3-1.2c-0.1-0.4-0.2-0.8-0.2-1.1c-0.1-0.3-0.1-0.6-0.1-1c0-1-0.2-1.9-0.5-2.8c-0.3-0.6-0.6-1.2-1-1.7
		c-0.2-0.2-0.3-0.5-0.5-0.7c-0.4-0.6-0.6-1.4-0.6-2.2c0-0.1,0-0.2,0.1-0.4c0,0,0-0.1,0.1-0.1c0.2,0,0.3-0.1,0.4-0.2
		c0.1-0.1,0.2-0.3,0.3-0.4c0.1-0.3,0-0.7-0.1-1c-0.1-0.5-0.3-0.9-0.6-1.3c-0.2-0.3-0.7-0.8-0.7-1.1c0-0.6,1.3-1.2,1.8-1.4
		c1.6-0.8,3.3-1.1,5-1c1.1,0.1,2.3,0.4,2.9,1.4c0.6,0.8,0.5,1.9,0.7,2.9c0,0.1,0.1,0.3,0.2,0.4c0.1,0.1,0.3,0.2,0.4,0.2
		c0.3,0.1,0.6,0.1,0.8,0h0c0.1,0,0.1,0,0.2,0c0.4-0.1,0.8-0.3,1.2-0.5c0.2-0.1,0.5-0.1,0.7-0.1c0,0,0,0,0,0c0.9,2.9,1,6.1,1.8,9
		c0.4,1.5,0.9,2.9,1,4.5c0,0.1,0,0.1,0,0.2c0,0.5,0,1,0,1.5c0,0.2,0,0.4,0.1,0.7c0.1,0.3,0.2,0.7,0.3,1l0,0c0,0.1,0.1,0.2,0.1,0.3
		c0,0.1,0,0.2,0.1,0.2l0,0C308.7,54.8,308.8,55.6,308.7,56.4z"/>
	<path class="st6" d="M295.7,37.3c6,0,10.9-4.9,10.9-10.9c0-6-4.9-10.9-10.9-10.9c-6,0-10.9,4.9-10.9,10.9
		C284.8,32.4,289.7,37.3,295.7,37.3z"/>
	<path class="st6" d="M364.9,85.8c-0.3-3-1.4-5.8-3.1-8.3c0.3,1.7,0.6,3.4,0.8,5c-0.4,0.1-0.7,0.1-1.1,0c-0.4-0.1-0.7-0.3-0.9-0.6
		c-0.5-0.6-0.8-1.2-1-1.9c-1.2-3.1-2.9-6-4.8-8.7c-6.9-0.6-13.8-3.5-19.9-6.8c-6.1-3.4-11.8-7.4-17.8-10.9c-1-0.6-2.1-1.2-3.3-1.7
		c-1.9-0.8-4-1.1-5.8-2c-0.1-0.1-0.2-0.1-0.4-0.2c-0.4-0.2-0.8-0.5-1.1-0.8c-0.2-0.2-0.4-0.3-0.5-0.5c-0.9-1-1.6-2.2-2.1-3.5
		c-1-2.1-1.3-4.7-2.3-6.8c0.4-0.4,0.9-0.8,1.5-1h0c0.1,0,0.2-0.1,0.2-0.1c0.4-0.2,0.8-0.3,1.2-0.4c0.2-0.1,0.5-0.1,0.7-0.1
		c0,0,0,0,0,0c1.1-0.2,2.2-0.1,3.2,0.3c1.5,0.5,2.8,1.5,4.1,2.5c2.1,1.5,4.1,3,6,4.7c1.1,1,2,2.1,3.1,3c0.9,0.7,1.9,1.4,3,2
		c6.1,3.7,12.3,7.3,18.4,10.9c2.1,1.2,4.2,2.5,6.2,3.8c3.1,2,6.1,4.1,9,6.3c1.8,1.3,3.5,2.5,5.2,3.8c0.6,0.4,1.1,0.8,1.5,1.4
		c0.4,0.6,0.6,1.3,0.7,2C366.1,80.1,365.8,83,364.9,85.8z"/>
	<path class="st7" d="M311.4,64.6c-0.7,3.3-4.1,5.3-5.8,8.2c-2.2,3.6-1.3,7.8-0.5,11.9c-1.5,1.3-3,2.6-4.5,3.8
		c-0.8,0.7-1.6,1.4-2.5,2c-1.3,0.9-2.6,1.6-4,2.3c-1.3,0.7-2.6,1.4-3.9,2c-1.2,0.7-2.5,1.2-3.9,1.6c-2.6,0.7-5.3,0.2-7.9-0.6
		c-0.3-0.1-0.6-0.2-0.9-0.4c-0.2-0.1-0.3-0.2-0.4-0.4c-0.3-0.5-0.3-1-0.3-1.5c0.3-4.3,1.3-8.5,2.4-12.7c0.6-2.5,1.3-5,2.3-7.4
		c0.9-2.1,2-4,3.2-6c1.3-2.4,2.9-4.7,4.7-6.8c0.9-0.8,1.6-1.7,2.2-2.8c0.7-1.5,0.4-3.2,0.5-4.8c0.1-1.2,0.4-2.4,1-3.5v0
		c0.3-0.6,0.6-1.2,1-1.7c0.2,0.4,0.4,0.8,0.5,1.3c0.1,0.3,0.2,0.5,0.4,0.8c0.2,0.4,0.3,0.7,0.5,1c0.4,1,0.9,2,1.3,3
		c0.5,1.3,1.1,2.4,2,3.5c0.4,0.5,0.9,1,1.5,1.3c0.6,0.3,1.3,0.4,1.9,0.4c0.7-0.1,1.3-0.3,1.8-0.6c0.5-0.4,1-0.9,1.3-1.5
		c0.6-1.1,1.1-2.3,1.3-3.5c0.4-1.5,0.4-3.1,0.1-4.6c-0.4-2.9-1.7-5.9-2.6-8.7c-0.4-0.9-0.6-1.9-0.6-2.9c0-0.1,0-0.2,0-0.3
		c0,0,0-0.1,0-0.1c0.4-0.2,0.8-0.3,1.2-0.4c0.2-0.1,0.5-0.1,0.7-0.1c0.8,4.3,1.6,8.7,2.4,13c0,0.1,0,0.2,0.1,0.3
		c0.1,0.6,0.2,1.2,0.4,1.9c0.1,0.6,0.2,1.1,0.4,1.7l0,0c0,0.2,0.1,0.4,0.1,0.6l0,0c0.1,0.5,0.3,1,0.5,1.5
		C310.2,58.5,312.1,61.5,311.4,64.6z"/>
	<path class="st5" d="M355.6,111c0,0.6,0.1,1.3,0.4,1.8c0.7,1.2,2.3,1.5,3.7,1.6c8.3,0.7,16.6,0.4,24.8-0.8c0.4,0,0.9-0.2,1.3-0.4
		c1.2-0.8,0.4-2.8-0.8-3.5c-1.3-0.6-2.8-0.5-4.2-0.8c-1.4-0.3-2.7-0.9-3.9-1.7c-2.8-1.6-5.6-3.3-8.4-5.1c-1.6-1.1-3.6-2.2-5.4-1.6
		C358,102.4,355.6,105.6,355.6,111z"/>
	<path class="st6" d="M294.6,48.7L294.6,48.7c0,0.1,0,0.2,0,0.2c0,0.1,0,0.3-0.1,0.4c-0.2,1.2-0.5,2.3-0.8,3.5
		c-0.9,3.2-2.1,6.4-3.3,9.5c-3.2,8.3-6.3,16.7-9.5,25c-0.8,2.1-1.6,4.2-2.5,6.3c-0.3,0.7-0.6,1.4-0.9,2.1c-1.1,2.5-2.2,5.1-2.5,7.7
		c-0.3,1.8-0.4,3.5-0.1,5.3c0.4,1.7,1.4,3.4,3.1,4.1c0.8,0.3,2,0.7,1.7,1.6c-0.1,0.5-0.6,0.7-1.1,0.8c-0.6,0.1-1.3,0.1-1.9-0.1
		c-0.6-0.2-1.2-0.5-1.6-0.9c-0.9-0.8-1.6-2-2.7-2.1c-0.8-0.1-1.6,0.4-2.3,0.7c-3,1.4-6.6,0.4-9.8-0.6c0.3-1.3,1.6-2.1,2.8-2.4
		c1.3-0.3,2.6-0.1,3.9-0.1c0.4,0,0.8-0.1,1.2-0.3c0.3-0.3,0.5-0.7,0.6-1.1c0.8-2.5,1.5-5.1,1.9-7.7c0.4-2.7,0.6-5.5,1.2-8.2
		c0.5-2.1,1.2-4.2,1.8-6.2c1.2-4.3,2.2-8.6,3-13c0.4-1.8,0.7-3.7,0.8-5.5c0.1-1.5,0.1-3.1,0.2-4.6c0.2-2,0.7-4,1.2-5.9
		c0.6-2.1,1.1-4.2,1.7-6.3c0.8-3.1,1.7-6.3,3.9-8.7c0.7-0.8,1.6-1.5,2.7-2c1-0.5,2.1-0.8,3.2-0.8c0.4,0,0.8,0,1.3,0.1
		c0.1,0,0.1,0,0.2,0.1c0.4,0.1,0.9,0.3,1.3,0.5c0.7-0.4,1-0.3,1.4,0.4c0.4,0.7,0.6,1.5,0.5,2.2C295.2,44.7,295,46.7,294.6,48.7z"/>
	<path class="st8" d="M295.3,51.2L295.3,51.2l-0.2,0.2l-1.5,1.5l-0.7-3.1l-2.5-10.5c0.4,0,0.8,0,1.3,0.1c0-0.1,0-0.2,0.1-0.4
		l0.1,0.4l0.8,2.9l1.6,5.5l0.3,0.9v0L295.3,51.2z"/>
	<path class="st3" d="M304.8,17.7c0,1-0.2,1.9-0.6,2.8c-0.4,0.9-0.9,1.7-1.6,2.4c-0.2,0.2-0.5,0.5-0.8,0.7c-1.3,1-2.8,1.5-4.4,1.5
		h-8.9c-2,0-3.8-0.8-5.2-2.2c-1.4-1.4-2.2-3.3-2.2-5.2s0.8-3.8,2.2-5.2c1.4-1.4,3.3-2.2,5.2-2.2h8.9c2,0,3.8,0.8,5.2,2.2
		C304,13.9,304.8,15.8,304.8,17.7z"/>
	<path class="st3" d="M313.1,18.3c4.2,0,7.6-3.4,7.6-7.6c0-4.2-3.4-7.6-7.6-7.6s-7.6,3.4-7.6,7.6C305.5,14.9,308.9,18.3,313.1,18.3z
		"/>
	<path class="st4" d="M312.9,3.1c-0.1,0-0.2,0-0.3,0c2,0.1,3.8,0.9,5.2,2.3c1.4,1.4,2.1,3.3,2.1,5.3c0,2-0.8,3.8-2.1,5.3
		c-1.4,1.4-3.2,2.2-5.2,2.3c0.1,0,0.2,0,0.3,0c2,0,3.9-0.8,5.4-2.2c1.4-1.4,2.2-3.3,2.2-5.4c0-2-0.8-3.9-2.2-5.4
		C316.8,3.9,314.9,3.1,312.9,3.1z"/>
	<path class="st4" d="M276.9,3.1c0.1,0,0.2,0,0.3,0c-2,0.1-3.8,0.9-5.2,2.3c-1.4,1.4-2.1,3.3-2.1,5.3c0,2,0.8,3.8,2.1,5.3
		c1.4,1.4,3.2,2.2,5.2,2.3c-0.1,0-0.2,0-0.3,0c-2,0-3.9-0.8-5.4-2.2c-1.4-1.4-2.2-3.3-2.2-5.4c0-2,0.8-3.9,2.2-5.4
		C272.9,3.9,274.8,3.1,276.9,3.1z"/>
	<path class="st4" d="M301.8,23.6c-1.3,1-2.8,1.5-4.4,1.5h-8.9c-1.6,0-3.1-0.5-4.4-1.5H301.8z"/>
	<path class="st6" d="M359,78.5c0,0,1.9,5.5,3.7,4l-1.4-7.2L359,78.5z"/>
	<path class="st9" d="M591.5,246.3c1.8,0.6,3.7,0.9,5.6,0.7c1.9-0.2,3.7-0.9,5.3-1.9c1.6-1,2.9-2.4,3.9-4c1-1.6,1.5-3.5,1.7-5.4
		c0.1-1.9-0.2-3.8-0.9-5.5c-0.7-1.7-1.8-3.3-3.3-4.5c-1.4-1.2-3.1-2.1-5-2.6c-1.8-0.5-3.8-0.5-5.6-0.1l0.3,6.3l-3-5.4
		c-2.9,1.4-5.2,3.8-6.3,6.9c-0.4,1.1-0.6,2.2-0.7,3.3c-0.2,2.7,0.5,5.3,1.9,7.5C586.9,243.7,589,245.4,591.5,246.3z"/>
	<path class="st2" d="M606.2,319.3c-1-5.3,3.5-10.1,8-13.2s9.8-6.1,11.3-11.3c2.2-7.5-4.4-14.4-9.5-20.3c-3.8-4.4-7.1-9.2-9.7-14.4
		c-1.1-2.1-2-4.2-2.3-6.6c-0.4-3.3,0.7-6.6,1.7-9.8c3.6-10.6,7.4-21.1,11.5-31.5"/>
	<path class="st2" d="M592,244.7c1.8,0.6,3.7,0.9,5.6,0.7c1.9-0.2,3.7-0.9,5.3-1.9c1.6-1,2.9-2.4,3.9-4s1.5-3.5,1.7-5.4
		s-0.2-3.8-0.9-5.5c-0.7-1.7-1.8-3.3-3.3-4.5s-3.1-2.1-5-2.6c-1.8-0.5-3.8-0.5-5.6-0.1l0.3,6.3l-3-5.4c-2.9,1.4-5.2,3.8-6.3,6.9
		c-0.4,1.1-0.6,2.2-0.7,3.3c-0.2,2.6,0.5,5.3,1.9,7.5C587.4,242.1,589.5,243.8,592,244.7L592,244.7z"/>
	<path class="st9" d="M604.7,209.9c0.7-1.9,1.9-3.6,3.4-5c1.5-1.4,3.4-2.3,5.4-2.8l1,6l1.9-6.3c2.6,0,5.1,0.9,7.2,2.5
		c2.1,1.6,3.6,3.7,4.3,6.2c0.8,2.5,0.7,5.1-0.2,7.6c-0.9,2.4-2.5,4.6-4.6,6c-2.1,1.5-4.7,2.2-7.3,2.2c-2.6-0.1-5.1-1-7.1-2.5
		c-2.1-1.6-3.5-3.8-4.3-6.3C603.8,215,603.8,212.4,604.7,209.9L604.7,209.9z"/>
	<path class="st2" d="M605.4,207.8c0.7-1.9,1.9-3.6,3.4-5c1.5-1.4,3.4-2.3,5.4-2.7l1,6l1.9-6.3c2.6,0,5.1,0.9,7.2,2.5
		c2.1,1.6,3.6,3.7,4.3,6.2c0.8,2.5,0.7,5.1-0.2,7.6c-0.9,2.4-2.5,4.6-4.6,6c-2.1,1.5-4.7,2.2-7.3,2.2c-2.6-0.1-5.1-1-7.1-2.5
		c-2-1.6-3.5-3.8-4.3-6.3C604.4,212.9,604.5,210.2,605.4,207.8L605.4,207.8z"/>
	<path class="st9" d="M613.9,274.5c2.8,1,5.9,1,8.7-0.1c2.8-1.1,5.1-3.2,6.4-5.9c1.3-2.7,1.6-5.8,0.8-8.7c-0.8-2.9-2.6-5.4-5.1-7
		l-1.4,4.8l-1-6c0,0,0,0,0,0c-1.5-0.5-3.1-0.8-4.7-0.7c-1.6,0.1-3.2,0.5-4.6,1.1c-1.5,0.7-2.8,1.6-3.8,2.8c-1.1,1.2-1.9,2.6-2.5,4.1
		c-0.5,1.5-0.8,3.1-0.7,4.7c0.1,1.6,0.5,3.2,1.1,4.6c0.7,1.5,1.6,2.8,2.8,3.8C611,273.1,612.4,274,613.9,274.5L613.9,274.5z"/>
	<path class="st2" d="M614.5,272.3c2.8,1,5.9,1,8.7-0.1c2.8-1.1,5.1-3.2,6.4-5.9c1.3-2.7,1.6-5.8,0.8-8.7c-0.8-2.9-2.6-5.4-5.1-7
		l-1.4,4.8l-1-6.1c0,0,0,0,0,0c-1.5-0.5-3.1-0.8-4.7-0.7c-1.6,0.1-3.2,0.5-4.6,1.1c-1.5,0.7-2.8,1.6-3.8,2.8
		c-1.1,1.2-1.9,2.6-2.5,4.1c-0.5,1.5-0.8,3.1-0.7,4.7c0.1,1.6,0.5,3.2,1.1,4.6c0.7,1.5,1.6,2.8,2.8,3.8
		C611.6,271,613,271.8,614.5,272.3L614.5,272.3z"/>
	<path class="st9" d="M601.2,294.8c0.5,2.8,1.9,5.3,4,7.1c2.1,1.8,4.8,2.9,7.6,3c2.8,0.1,5.5-0.8,7.8-2.5c2.2-1.7,3.8-4.1,4.5-6.8
		c0.7-2.7,0.4-5.6-0.8-8.1c-1.2-2.5-3.2-4.6-5.7-5.8c-2.5-1.2-5.4-1.5-8.1-0.9c-2.7,0.6-5.2,2.2-6.9,4.4l5.4,8.2l-7.4-4.3
		C600.9,290.9,600.8,292.9,601.2,294.8z"/>
	<path class="st2" d="M601.7,293.2c0.5,2.8,1.9,5.3,4,7.1c2.1,1.8,4.8,2.9,7.6,3c2.8,0.1,5.5-0.8,7.8-2.5c2.2-1.7,3.8-4.1,4.5-6.8
		c0.7-2.7,0.4-5.6-0.8-8.1c-1.2-2.5-3.2-4.6-5.8-5.8c-2.5-1.2-5.4-1.5-8.1-0.9s-5.1,2.2-6.9,4.4l5.4,8.2l-7.4-4.3
		C601.4,289.3,601.3,291.3,601.7,293.2L601.7,293.2z"/>
	<path class="st9" d="M5.4,276.1c1.2,0.4,2.4,0.6,3.7,0.4c1.2-0.1,2.4-0.6,3.5-1.2c1-0.7,1.9-1.6,2.5-2.7c0.6-1.1,1-2.3,1.1-3.5
		c0.1-1.2-0.1-2.5-0.6-3.6c-0.5-1.1-1.2-2.2-2.2-3c-0.9-0.8-2.1-1.4-3.3-1.7c-1.2-0.3-2.5-0.3-3.7-0.1l0.2,4.1l-2-3.5
		c-1.9,0.9-3.4,2.5-4.1,4.5c-0.3,0.7-0.4,1.4-0.5,2.2c-0.1,1.7,0.3,3.5,1.3,4.9C2.4,274.4,3.8,275.5,5.4,276.1z"/>
	<path class="st2" d="M15.1,324c-0.7-3.5,2.3-6.6,5.3-8.7c3-2,6.4-4,7.4-7.5c1.4-4.9-2.9-9.5-6.2-13.4c-2.5-2.9-4.6-6.1-6.4-9.5
		c-0.8-1.3-1.3-2.8-1.5-4.3c-0.3-2.2,0.4-4.4,1.1-6.5c2.4-7,4.9-13.9,7.6-20.7"/>
	<path class="st2" d="M5.8,275c1.2,0.4,2.4,0.6,3.7,0.4c1.2-0.1,2.4-0.6,3.5-1.2c1-0.7,1.9-1.6,2.5-2.7c0.6-1.1,1-2.3,1.1-3.5
		c0.1-1.2-0.1-2.5-0.6-3.6c-0.5-1.1-1.2-2.2-2.2-3c-0.9-0.8-2.1-1.4-3.3-1.7c-1.2-0.3-2.5-0.3-3.7-0.1l0.2,4.1l-2-3.5
		c-1.9,0.9-3.4,2.5-4.1,4.5c-0.3,0.7-0.4,1.4-0.5,2.2c-0.1,1.7,0.3,3.5,1.3,4.9C2.7,273.3,4.1,274.4,5.8,275L5.8,275z"/>
	<path class="st9" d="M14.1,252.2c0.5-1.3,1.2-2.4,2.2-3.3c1-0.9,2.2-1.5,3.5-1.8l0.7,3.9l1.2-4.1c1.7,0,3.4,0.6,4.7,1.6
		c1.4,1,2.4,2.5,2.9,4.1c0.5,1.6,0.5,3.4-0.1,5c-0.6,1.6-1.6,3-3,4c-1.4,1-3.1,1.5-4.8,1.4c-1.7,0-3.3-0.6-4.7-1.7
		c-1.3-1-2.3-2.5-2.8-4.1C13.5,255.5,13.6,253.8,14.1,252.2z"/>
	<path class="st2" d="M14.6,250.8c0.5-1.3,1.2-2.4,2.2-3.3c1-0.9,2.2-1.5,3.5-1.8l0.7,3.9l1.2-4.1c1.7,0,3.4,0.6,4.7,1.6
		c1.4,1,2.4,2.5,2.9,4.1c0.5,1.6,0.5,3.4-0.1,5c-0.6,1.6-1.6,3-3,4c-1.4,1-3.1,1.5-4.8,1.4c-1.7,0-3.3-0.6-4.7-1.7
		c-1.3-1-2.3-2.5-2.8-4.1C13.9,254.1,14,252.4,14.6,250.8L14.6,250.8z"/>
	<path class="st9" d="M20.2,294.6c1.9,0.7,3.9,0.6,5.7-0.1c1.8-0.7,3.3-2.1,4.2-3.9c0.9-1.8,1.1-3.8,0.6-5.7
		c-0.5-1.9-1.7-3.5-3.4-4.6l-0.9,3.2l-0.7-4c0,0,0,0,0,0c-1-0.4-2-0.5-3.1-0.5c-1.1,0-2.1,0.3-3,0.7c-1,0.4-1.8,1.1-2.5,1.9
		c-0.7,0.8-1.3,1.7-1.6,2.7c-0.4,1-0.5,2-0.5,3.1c0,1.1,0.3,2.1,0.7,3c0.4,1,1.1,1.8,1.9,2.5C18.2,293.7,19.2,294.3,20.2,294.6z"/>
	<path class="st2" d="M20.5,293.2c1.9,0.7,3.9,0.6,5.7-0.1c1.8-0.7,3.3-2.1,4.2-3.9c0.9-1.8,1.1-3.8,0.6-5.7
		c-0.5-1.9-1.7-3.5-3.4-4.6l-0.9,3.2l-0.7-4c0,0,0,0,0,0c-1-0.4-2-0.5-3.1-0.5c-1.1,0-2.1,0.3-3,0.7c-1.9,0.9-3.4,2.5-4.1,4.5
		c-0.7,2-0.6,4.2,0.3,6.1C16.9,291,18.5,292.5,20.5,293.2L20.5,293.2z"/>
	<path class="st9" d="M11.8,308c0.3,1.8,1.3,3.5,2.6,4.7c1.4,1.2,3.2,1.9,5,2c1.8,0.1,3.6-0.5,5.1-1.6c1.5-1.1,2.5-2.7,2.9-4.5
		c0.4-1.8,0.3-3.7-0.5-5.3c-0.8-1.7-2.1-3-3.8-3.8c-1.7-0.8-3.5-1-5.3-0.6c-1.8,0.4-3.4,1.5-4.5,2.9l3.6,5.4l-4.9-2.9
		C11.6,305.4,11.6,306.7,11.8,308z"/>
	<path class="st2" d="M12.1,306.9c0.3,1.8,1.3,3.5,2.6,4.7c1.4,1.2,3.2,1.9,5,2c1.8,0.1,3.6-0.5,5.1-1.6c1.5-1.1,2.5-2.7,2.9-4.5
		c0.4-1.8,0.3-3.7-0.5-5.3s-2.1-3-3.8-3.8c-1.7-0.8-3.5-1-5.3-0.6c-1.8,0.4-3.4,1.5-4.5,2.9l3.6,5.4l-4.9-2.9
		C12,304.3,11.9,305.6,12.1,306.9L12.1,306.9z"/>
	<path class="st3" d="M282.6,200.3c5.5,0,10-5.8,10-12.9c0-7.1-4.5-12.9-10-12.9c-5.5,0-10,5.8-10,12.9
		C272.6,194.5,277.1,200.3,282.6,200.3z"/>
	<path class="st3" d="M336.9,200.6c5.5,0,10-5.8,10-12.9c0-7.1-4.5-12.9-10-12.9c-5.5,0-10,5.8-10,12.9
		C327,194.8,331.4,200.6,336.9,200.6z"/>
	<path class="st3" d="M329.3,225.8c0,5.8-8.2,10.6-18.2,10.6c-10.1,0-18.2-4.7-18.2-10.6c0-5.1,6.1-9.3,14.3-10.3
		c1.3-0.2,2.6-0.3,3.9-0.3c2.2,0,4.4,0.2,6.5,0.7C324.5,217.5,329.3,221.3,329.3,225.8z"/>
	<path class="st2" d="M285,197.3c5.5,0,10-5.8,10-12.9s-4.5-12.9-10-12.9c-5.5,0-10,5.8-10,12.9S279.4,197.3,285,197.3z"/>
	<path class="st2" d="M339.3,197.6c5.5,0,10-5.8,10-12.9c0-7.1-4.5-12.9-10-12.9s-10,5.8-10,12.9
		C329.3,191.8,333.8,197.6,339.3,197.6z"/>
	<path class="st2" d="M313.4,233.4c10.1,0,18.2-4.7,18.2-10.6s-8.2-10.6-18.2-10.6c-10.1,0-18.2,4.7-18.2,10.6
		S303.4,233.4,313.4,233.4z"/>
	<path class="st10" d="M317.9,216.8c0,0.7-0.3,1.4-0.8,2c-0.2,0.3-0.5,0.5-0.8,0.6c-0.3,0.1-0.7,0.2-1,0.2h-5.9
		c-0.7,0-1.4-0.3-1.9-0.9c-0.5-0.5-0.8-1.2-0.7-2c0-0.6,0.2-1.1,0.5-1.6c1.3-0.2,2.6-0.3,3.9-0.3c2.2,0,4.4,0.2,6.5,0.8
		C317.8,216.1,317.9,216.4,317.9,216.8z"/>
	<path class="st10" d="M285,183.8c1.6,0,2.9-1.3,2.9-2.9c0-1.6-1.3-2.9-2.9-2.9c-1.6,0-2.9,1.3-2.9,2.9
		C282,182.5,283.3,183.8,285,183.8z"/>
	<path class="st10" d="M339.6,183.8c1.6,0,2.9-1.3,2.9-2.9c0-1.6-1.3-2.9-2.9-2.9c-1.6,0-2.9,1.3-2.9,2.9
		C336.6,182.5,338,183.8,339.6,183.8z"/>
	<path class="st11" d="M342.5,211.4c1.6,0,2.9-1.3,2.9-2.9s-1.3-2.9-2.9-2.9c-1.6,0-2.9,1.3-2.9,2.9S340.9,211.4,342.5,211.4z"/>
	<path class="st11" d="M270.9,211.4c1.6,0,2.9-1.3,2.9-2.9s-1.3-2.9-2.9-2.9c-1.6,0-2.9,1.3-2.9,2.9S269.2,211.4,270.9,211.4z"/>
</g>
</svg>
