<svg width="15" height="15" viewBox="0 0 15 15" fill="none" xmlns="http://www.w3.org/2000/svg">
<path d="M6.71512 2.37054H2.19255C1.84985 2.37054 1.52118 2.50668 1.27886 2.74901C1.03653 2.99134 0.900391 3.32 0.900391 3.66271V12.7078C0.900391 13.0505 1.03653 13.3792 1.27886 13.6215C1.52118 13.8639 1.84985 14 2.19255 14H11.2377C11.5804 14 11.9091 13.8639 12.1514 13.6215C12.3937 13.3792 12.5298 13.0505 12.5298 12.7078V8.18527M11.5607 1.40142C11.8178 1.1444 12.1664 1 12.5298 1C12.8933 1 13.2419 1.1444 13.499 1.40142C13.756 1.65845 13.9004 2.00705 13.9004 2.37054C13.9004 2.73404 13.756 3.08264 13.499 3.33967L7.3612 9.47743L4.77688 10.1235L5.42296 7.53919L11.5607 1.40142Z" stroke="black" stroke-linecap="round" stroke-linejoin="round"/>
</svg>
