<?xml version="1.0" standalone="no"?>
<!DOCTYPE svg PUBLIC "-//W3C//DTD SVG 20010904//EN"
 "http://www.w3.org/TR/2001/REC-SVG-20010904/DTD/svg10.dtd">
<svg version="1.0" xmlns="http://www.w3.org/2000/svg"
 width="328.000000pt" height="328.000000pt" viewBox="0 0 328.000000 328.000000"
 preserveAspectRatio="xMidYMid meet">
<metadata>
Created by potrace 1.14, written by Peter Selinger 2001-2017
</metadata>
<g transform="translate(0.000000,328.000000) scale(0.100000,-0.100000)"
fill="#000000" stroke="none">
<path d="M1157 3058 l-136 -143 57 -57 56 -58 -18 -30 c-29 -51 -15 -80 79
-160 103 -87 255 -246 255 -266 0 -7 -8 -14 -19 -14 -34 0 -193 -50 -268 -85
-176 -81 -349 -231 -460 -397 -214 -321 -248 -711 -94 -1068 104 -241 292
-436 536 -556 151 -74 273 -104 445 -111 321 -12 589 90 822 315 224 216 339
487 339 802 0 385 -189 730 -515 942 -102 65 -258 131 -359 150 -37 7 -67 16
-67 19 0 18 87 114 176 195 167 152 174 160 174 188 0 15 -7 37 -15 49 -14 22
-12 26 40 77 30 30 55 59 55 65 0 6 -62 72 -138 148 l-137 137 -337 0 -336 0
-135 -142z m183 47 c0 -5 -28 -38 -62 -72 l-62 -63 -23 22 c-13 12 -23 26 -23
32 0 6 30 41 67 78 l67 67 18 -27 c10 -15 18 -31 18 -37z m45 45 c-14 -15 -21
-17 -32 -9 -22 19 -15 29 19 29 30 0 31 0 13 -20z m235 13 c0 -11 -139 -207
-148 -210 -4 -2 -27 31 -51 73 l-44 75 34 35 c33 34 34 34 121 34 48 0 88 -3
88 -7z m224 -37 c20 -23 36 -46 36 -50 0 -8 -89 -126 -95 -126 -6 0 -125 200
-125 210 0 6 33 10 74 10 l75 0 35 -44z m106 41 c0 -2 -11 -17 -23 -35 l-24
-32 -20 23 c-39 43 -38 47 16 47 28 0 51 -1 51 -3z m184 -245 c-37 -2 -72 -1
-79 2 -7 2 -40 38 -73 79 l-61 74 27 37 26 37 113 -113 113 -113 -66 -3z
m-431 107 c32 -56 57 -103 54 -105 -2 -3 -63 -3 -135 -2 l-130 3 71 102 c40
57 74 103 77 102 3 0 31 -45 63 -100z m-296 -32 l43 -72 -92 -3 c-131 -4 -139
6 -62 92 32 36 60 63 63 60 3 -2 24 -37 48 -77z m584 -49 l20 -28 -100 0 c-56
0 -101 3 -101 6 0 3 21 33 47 66 l47 61 33 -39 c19 -21 43 -51 54 -66z m-806
12 l39 -40 -77 0 c-42 0 -77 2 -77 5 0 8 62 75 69 75 4 0 25 -18 46 -40z m209
-305 c91 -135 166 -248 166 -251 0 -6 -474 476 -478 487 -2 5 30 9 72 9 l75 0
165 -245z m77 203 c6 -24 35 -130 65 -237 30 -106 53 -195 51 -197 -3 -4 -317
461 -317 471 0 3 43 5 95 5 l94 0 12 -42z m283 -45 c-125 -455 -121 -441 -133
-398 -6 22 -38 137 -71 255 -33 118 -60 218 -60 223 0 4 65 7 144 7 l144 0
-24 -87z m232 63 c-80 -122 -318 -468 -314 -456 3 8 33 116 68 240 34 124 64
228 67 233 2 4 47 7 100 7 l95 0 -16 -24z m197 10 c-4 -8 -118 -125 -252 -261
-134 -136 -240 -241 -235 -232 5 9 83 126 174 261 l165 246 78 0 c64 0 77 -3
70 -14z m-922 -224 c69 -71 115 -130 138 -172 l33 -65 -83 81 c-46 44 -114
107 -151 139 -38 31 -68 66 -68 75 0 24 10 50 19 50 5 0 55 -49 112 -108z
m867 71 c3 -27 -7 -40 -107 -127 -60 -53 -131 -120 -157 -149 -26 -28 -45 -47
-42 -42 61 116 102 172 187 258 52 53 100 96 106 94 5 -2 11 -17 13 -34z
m-568 -376 c-21 -19 -46 -14 -61 11 -8 15 -28 50 -44 77 l-28 50 69 -67 c37
-37 66 -69 64 -71z m226 51 c-19 -35 -38 -62 -41 -60 -3 1 -15 2 -27 2 -19 0
-13 9 37 60 33 33 61 60 63 60 2 0 -13 -28 -32 -62z m75 -132 c380 -84 696
-378 803 -749 36 -123 50 -244 42 -362 -12 -177 -21 -172 -22 12 0 159 -3 188
-27 275 -95 354 -358 637 -697 750 -134 45 -186 53 -355 52 -139 -1 -173 -4
-260 -27 -176 -47 -340 -138 -478 -265 l-72 -66 70 73 c162 167 359 273 590
316 96 18 308 13 406 -9z m-6 -176 c336 -86 598 -364 662 -705 21 -109 13
-313 -16 -409 -98 -327 -359 -570 -684 -637 -403 -83 -803 114 -990 486 -172
344 -96 774 184 1041 138 131 308 215 494 244 87 13 257 4 350 -20z m-1168
-682 c-3 -8 -6 -5 -6 6 -1 11 2 17 5 13 3 -3 4 -12 1 -19z m-15 -140 c-5 -148
8 -240 52 -371 82 -241 260 -438 497 -551 125 -60 228 -86 369 -93 271 -13
515 78 714 266 72 68 76 71 36 23 -110 -133 -281 -242 -467 -299 -79 -24 -104
-26 -253 -27 -143 -1 -176 2 -249 22 -478 131 -782 592 -710 1077 6 41 12 75
14 75 1 0 0 -55 -3 -122z m2005 -310 c-3 -8 -6 -5 -6 6 -1 11 2 17 5 13 3 -3
4 -12 1 -19z"/>
</g>
</svg>
